<svg width="293" height="114" viewBox="0 0 293 114" fill="none" xmlns="http://www.w3.org/2000/svg">
<g clip-path="url(#clip0_40_141)">
<path d="M2.79909 95.6598L19.5807 49.2554L36.3623 2.85107H54.3656L87.9288 95.6598H68.8967L45.7497 26.5958L44.7209 21.8724L43.5636 26.8511L32.6331 59.915L31.0899 62.4682L33.0188 62.2129H42.792C45.2782 62.2129 47.3572 62.915 49.0289 64.3193C50.7435 65.7235 52.1151 67.4469 53.1439 69.4895C54.2155 71.5321 55.0514 73.4895 55.6515 75.3618H27.7465L20.9309 95.6598H2.79909Z" fill="#00743F"/>
<path d="M186.91 111.263V1.95461H205.16V111.263H186.91Z" fill="#F39F03"/>
<path d="M254.913 113.142C250.621 113.142 245.599 112.59 239.843 111.488C234.088 110.386 228.08 108.38 221.82 105.474L226.894 93.1448C231.992 95.4502 236.89 97.0792 241.585 98.0314C246.33 98.9832 250.571 99.4597 254.307 99.4597C260.366 99.4597 265.237 97.9061 268.923 94.7987C272.608 91.6914 274.451 87.9576 274.451 83.5973C274.451 79.6881 273.214 76.3552 270.74 73.5987C268.266 70.8423 265.085 68.3614 261.199 66.1562C257.311 63.9509 253.172 61.7458 248.779 59.5405C244.437 57.3353 240.322 54.8544 236.436 52.098C232.598 49.2913 229.443 45.9835 226.97 42.1745C224.495 38.3154 223.259 33.6043 223.259 28.0412C223.259 22.0771 224.698 17.0152 227.575 12.8553C230.453 8.69548 234.315 5.51306 239.162 3.30781C244.058 1.10256 249.511 0 255.519 0C260.063 0 264.531 0.325816 268.923 0.977306C273.315 1.6288 278.439 2.90681 284.296 4.81136L279.298 16.9901C274.906 15.687 270.866 14.7849 267.181 14.2837C263.495 13.7324 260.087 13.4568 256.958 13.4568C251.96 13.4568 248.046 14.7599 245.22 17.366C242.392 19.9721 240.979 23.1547 240.979 26.9135C240.979 30.522 242.215 33.6544 244.69 36.3107C247.163 38.9168 250.344 41.3225 254.232 43.5277C258.17 45.733 262.335 48.0133 266.727 50.3689C271.119 52.6743 275.258 55.2805 279.146 58.1873C283.084 61.0942 286.289 64.5774 288.764 68.637C291.237 72.6966 292.474 77.6082 292.474 83.3718C292.474 89.2857 290.934 94.4729 287.855 98.9335C284.826 103.395 280.484 106.877 274.83 109.383C269.226 111.89 262.586 113.142 254.913 113.142Z" fill="#F39F03"/>
<path d="M13.3596 101.078L9.1588 111.263H7.82997L6.50117 103.631C6.48689 103.551 6.4726 103.465 6.45831 103.376C6.44831 103.281 6.43974 103.18 6.42973 103.071C6.35829 103.28 6.28969 103.465 6.22253 103.631L3.00053 111.263H1.68604L0 101.078H1.15022C1.27882 101.078 1.38168 101.109 1.45741 101.17C1.53886 101.231 1.58314 101.315 1.59314 101.419L2.65047 108.376C2.66047 108.508 2.66906 108.65 2.67906 108.802C2.69335 108.948 2.7048 109.104 2.7148 109.27C2.76766 109.104 2.8191 108.946 2.87196 108.795C2.92912 108.643 2.9834 108.504 3.03627 108.376L5.97966 101.419C6.01824 101.334 6.08394 101.256 6.17967 101.185C6.2754 101.114 6.38402 101.078 6.50833 101.078H6.84412C6.97271 101.078 7.07271 101.111 7.14415 101.177C7.21988 101.238 7.27274 101.319 7.30132 101.419L8.51584 108.376C8.54013 108.504 8.55869 108.641 8.57298 108.787C8.59156 108.934 8.6087 109.088 8.62299 109.248C8.713 108.932 8.80444 108.641 8.89445 108.376L11.6664 101.419C11.695 101.329 11.7622 101.251 11.8665 101.185C11.9708 101.114 12.085 101.078 12.2094 101.078H13.3596Z" fill="#192E5B"/>
<path d="M15.2956 105.553C15.6671 105.024 16.0772 104.624 16.5244 104.355C16.9717 104.085 17.4289 103.951 17.8961 103.951C18.2062 103.951 18.4776 104.012 18.7105 104.135C18.9491 104.253 19.142 104.429 19.2892 104.66C19.4364 104.891 19.5364 105.178 19.5893 105.518C19.6464 105.854 19.6493 106.239 19.5964 106.674L19.0535 111.263H17.6603L18.2033 106.674C18.2705 106.131 18.2362 105.731 18.1033 105.475C17.9747 105.22 17.7318 105.092 17.3746 105.092C17.1645 105.092 16.9502 105.149 16.7316 105.263C16.5173 105.376 16.3058 105.536 16.0958 105.745C15.8914 105.948 15.6986 106.199 15.5171 106.497C15.3413 106.79 15.1885 107.117 15.0599 107.475L14.5955 111.263H13.2024L14.4812 100.795H15.8743L15.2956 105.553Z" fill="#192E5B"/>
<path d="M24.5216 104.943C24.2358 104.943 23.9743 105.003 23.7357 105.121C23.4985 105.234 23.2842 105.395 23.0928 105.603C22.9027 105.806 22.7413 106.047 22.6069 106.326C22.4741 106.6 22.3698 106.901 22.2926 107.227C22.9927 107.138 23.5528 107.039 23.9715 106.929C24.3959 106.82 24.7216 106.702 24.9502 106.575C25.1789 106.443 25.3289 106.302 25.4003 106.156C25.4775 106.01 25.5146 105.854 25.5146 105.688C25.5146 105.607 25.496 105.525 25.4575 105.44C25.4246 105.351 25.3675 105.27 25.286 105.199C25.2103 105.124 25.1074 105.061 24.9788 105.014C24.856 104.968 24.703 104.943 24.5216 104.943ZM26.5934 109.929C26.3462 110.18 26.1062 110.395 25.8718 110.575C25.6389 110.755 25.3989 110.904 25.1503 111.021C24.9074 111.139 24.653 111.224 24.3858 111.277C24.1201 111.334 23.8286 111.362 23.5143 111.362C23.0999 111.362 22.7241 111.294 22.3855 111.156C22.0526 111.014 21.7697 110.816 21.5353 110.56C21.3024 110.305 21.121 109.997 20.9924 109.639C20.8695 109.274 20.8066 108.868 20.8066 108.419C20.8066 108.046 20.8452 107.677 20.9209 107.312C21.0024 106.943 21.1196 106.596 21.271 106.27C21.4239 105.939 21.6097 105.631 21.8283 105.348C22.0483 105.064 22.2983 104.82 22.5784 104.617C22.8599 104.409 23.1699 104.248 23.5071 104.135C23.8457 104.017 24.2101 103.958 24.6001 103.958C24.9716 103.958 25.2931 104.01 25.5646 104.114C25.8361 104.217 26.0604 104.352 26.2362 104.518C26.4176 104.678 26.5505 104.858 26.6363 105.057C26.722 105.256 26.7649 105.45 26.7649 105.639C26.7649 105.951 26.7006 106.238 26.572 106.504C26.4434 106.763 26.2076 107 25.8647 107.213C25.5275 107.421 25.0603 107.603 24.4644 107.759C23.8701 107.915 23.1056 108.04 22.1712 108.135C22.1669 108.178 22.164 108.22 22.164 108.263C22.164 108.305 22.164 108.348 22.164 108.39C22.164 109.01 22.2983 109.478 22.5641 109.795C22.8356 110.111 23.2428 110.27 23.7857 110.27C24.0101 110.27 24.2101 110.248 24.3858 110.206C24.563 110.159 24.7173 110.102 24.8502 110.036C24.9888 109.969 25.1103 109.898 25.2146 109.823C25.3203 109.742 25.4146 109.67 25.5003 109.603C25.5918 109.536 25.6747 109.482 25.7504 109.44C25.8275 109.393 25.9061 109.369 25.9861 109.369C26.039 109.369 26.0847 109.383 26.1219 109.412C26.1647 109.436 26.2062 109.465 26.2433 109.504L26.5934 109.929Z" fill="#192E5B"/>
<path d="M29.6154 106C29.8054 105.607 30.0111 105.27 30.2297 104.986C30.4483 104.698 30.677 104.473 30.9156 104.312C31.1542 104.146 31.3985 104.047 31.6514 104.014C31.9086 103.976 32.1658 104.014 32.423 104.128L32.173 105.461C31.5586 105.216 31.0199 105.298 30.5584 105.709C30.0969 106.121 29.7225 106.882 29.4368 107.993L29.0367 111.263H27.6721L28.5509 104.043H29.251C29.4039 104.043 29.5196 104.081 29.6011 104.156C29.6825 104.231 29.7225 104.351 29.7225 104.511L29.6154 106Z" fill="#192E5B"/>
<path d="M36.0751 104.943C35.7893 104.943 35.5279 105.003 35.2893 105.121C35.0506 105.234 34.8363 105.395 34.6463 105.603C34.4562 105.806 34.2934 106.047 34.1605 106.326C34.0276 106.6 33.9219 106.901 33.8461 107.227C34.5463 107.138 35.1064 107.039 35.525 106.929C35.9494 106.82 36.2751 106.702 36.5038 106.575C36.7324 106.443 36.8824 106.302 36.9538 106.156C37.0296 106.01 37.0682 105.854 37.0682 105.688C37.0682 105.607 37.0496 105.525 37.011 105.44C36.9781 105.351 36.921 105.27 36.8395 105.199C36.7638 105.124 36.6609 105.061 36.5323 105.014C36.408 104.968 36.2566 104.943 36.0751 104.943ZM38.1469 109.929C37.8997 110.18 37.6583 110.395 37.4254 110.575C37.1925 110.755 36.951 110.904 36.7038 111.021C36.4609 111.139 36.2065 111.224 35.9393 111.277C35.6722 111.334 35.3821 111.362 35.0678 111.362C34.6534 111.362 34.2776 111.294 33.939 111.156C33.6061 111.014 33.3218 110.816 33.0889 110.56C32.856 110.305 32.6745 109.997 32.5459 109.639C32.4216 109.274 32.3602 108.868 32.3602 108.419C32.3602 108.046 32.3987 107.677 32.4744 107.312C32.5559 106.943 32.6717 106.596 32.8245 106.27C32.9774 105.939 33.1631 105.631 33.3818 105.348C33.6004 105.064 33.8504 104.82 34.1319 104.617C34.4134 104.409 34.722 104.248 35.0607 104.135C35.3993 104.017 35.7636 103.958 36.1537 103.958C36.5252 103.958 36.8467 104.01 37.1181 104.114C37.3896 104.217 37.614 104.352 37.7897 104.518C37.9712 104.678 38.104 104.858 38.1898 105.057C38.2755 105.256 38.3184 105.45 38.3184 105.639C38.3184 105.951 38.2541 106.238 38.1255 106.504C37.9969 106.763 37.7611 107 37.4182 107.213C37.0796 107.421 36.6138 107.603 36.0179 107.759C35.4221 107.915 34.6577 108.04 33.7247 108.135C33.7204 108.178 33.7175 108.22 33.7175 108.263C33.7175 108.305 33.7175 108.348 33.7175 108.39C33.7175 109.01 33.8504 109.478 34.1176 109.795C34.3891 110.111 34.7963 110.27 35.3393 110.27C35.5636 110.27 35.7636 110.248 35.9393 110.206C36.1151 110.159 36.2708 110.102 36.4037 110.036C36.5423 109.969 36.6638 109.898 36.7681 109.823C36.8724 109.742 36.9681 109.67 37.0539 109.603C37.1439 109.536 37.2282 109.482 37.3039 109.44C37.3796 109.393 37.4582 109.369 37.5397 109.369C37.5925 109.369 37.6368 109.383 37.6754 109.412C37.7183 109.436 37.7583 109.465 37.7968 109.504L38.1469 109.929Z" fill="#192E5B"/>
<path d="M46.2984 106.341C46.6885 106.341 47.0342 106.281 47.3343 106.163C47.6343 106.04 47.8844 105.873 48.0844 105.66C48.2887 105.447 48.4416 105.195 48.5416 104.901C48.6459 104.607 48.6988 104.287 48.6988 103.936C48.6988 103.412 48.5417 102.996 48.2273 102.688C47.9173 102.376 47.4428 102.22 46.8056 102.22H45.3696L44.8624 106.341H46.2984ZM46.9485 101.078C47.5 101.078 47.9787 101.145 48.3845 101.277C48.7888 101.409 49.1218 101.596 49.3847 101.837C49.6504 102.074 49.849 102.359 49.9776 102.695C50.1062 103.026 50.1705 103.395 50.1705 103.802C50.1705 104.341 50.082 104.837 49.9062 105.291C49.7347 105.741 49.4775 106.128 49.1346 106.454C48.796 106.78 48.3773 107.036 47.8772 107.22C47.3772 107.404 46.8028 107.497 46.1555 107.497H44.7195L44.2551 111.263H42.7977L44.048 101.078H46.9485Z" fill="#192E5B"/>
<path d="M53.141 110.284C53.4754 110.284 53.7768 110.195 54.0483 110.014C54.3255 109.83 54.5585 109.585 54.7485 109.277C54.9442 108.969 55.0943 108.614 55.1986 108.213C55.3043 107.812 55.3557 107.39 55.3557 106.951C55.3557 106.302 55.2329 105.82 54.9842 105.504C54.7371 105.187 54.3756 105.029 53.8983 105.029C53.5611 105.029 53.2553 105.121 52.9839 105.305C52.7124 105.485 52.4795 105.728 52.2837 106.036C52.0937 106.338 51.9465 106.691 51.8408 107.092C51.7365 107.494 51.6836 107.915 51.6836 108.355C51.6836 108.993 51.808 109.475 52.0552 109.802C52.3038 110.124 52.6652 110.284 53.141 110.284ZM53.0125 111.362C52.6181 111.362 52.2538 111.295 51.9194 111.163C51.5865 111.026 51.2979 110.83 51.055 110.575C50.8178 110.319 50.6292 110.007 50.4906 109.639C50.3577 109.265 50.2905 108.84 50.2905 108.362C50.2905 107.752 50.3863 107.18 50.5763 106.646C50.7721 106.107 51.0364 105.638 51.3693 105.241C51.7079 104.84 52.1037 104.525 52.5552 104.298C53.0124 104.067 53.504 103.951 54.0269 103.951C54.4227 103.951 54.7871 104.019 55.12 104.156C55.4543 104.288 55.7401 104.482 55.9773 104.738C56.2202 104.993 56.4088 105.308 56.5417 105.681C56.6803 106.05 56.7489 106.471 56.7489 106.943C56.7489 107.549 56.6517 108.121 56.4559 108.66C56.2659 109.195 56.0016 109.663 55.6629 110.064C55.33 110.465 54.9342 110.783 54.477 111.014C54.0255 111.246 53.5368 111.362 53.0125 111.362Z" fill="#192E5B"/>
<path d="M58.1605 109.873C58.1605 109.844 58.1605 109.809 58.1605 109.766C58.1605 109.719 58.162 109.653 58.1677 109.568C58.1763 109.482 58.1891 109.369 58.2034 109.227C58.222 109.085 58.2462 108.904 58.2748 108.681L58.7106 105.178H57.9319C57.8605 105.178 57.8005 105.153 57.7533 105.107C57.7104 105.054 57.6961 104.979 57.7104 104.88L57.7747 104.319L58.8821 104.156L59.4393 102.007C59.4622 101.926 59.5008 101.865 59.5536 101.823C59.6108 101.776 59.6794 101.752 59.7608 101.752H60.5038L60.1966 104.17H62.0612L61.9469 105.178H60.0751L59.6465 108.61C59.6222 108.804 59.6037 108.961 59.5894 109.078C59.5751 109.196 59.5622 109.291 59.5536 109.362C59.5479 109.429 59.5436 109.475 59.5393 109.504C59.5393 109.532 59.5393 109.553 59.5393 109.568C59.5393 109.79 59.5936 109.958 59.7037 110.071C59.8123 110.185 59.958 110.241 60.1395 110.241C60.258 110.241 60.3609 110.224 60.4467 110.192C60.5367 110.159 60.6153 110.124 60.6824 110.085C60.7481 110.043 60.8039 110.004 60.8468 109.972C60.8939 109.939 60.9367 109.922 60.9753 109.922C61.0182 109.922 61.0511 109.934 61.0754 109.958C61.0982 109.976 61.1225 110.01 61.1468 110.057L61.4397 110.724C61.1968 110.932 60.9253 111.092 60.6253 111.206C60.3252 111.319 60.0223 111.376 59.7179 111.376C59.2407 111.376 58.865 111.248 58.5892 110.993C58.312 110.734 58.1691 110.359 58.1605 109.873Z" fill="#192E5B"/>
<path d="M66.242 104.943C65.9562 104.943 65.6948 105.003 65.4562 105.121C65.219 105.234 65.0046 105.395 64.8132 105.603C64.6232 105.806 64.4617 106.047 64.3273 106.326C64.1945 106.6 64.0902 106.901 64.013 107.227C64.7132 107.138 65.2733 107.039 65.6919 106.929C66.1163 106.82 66.4421 106.702 66.6707 106.575C66.8993 106.443 67.0493 106.302 67.1207 106.156C67.1979 106.01 67.235 105.854 67.235 105.688C67.235 105.607 67.2165 105.525 67.1779 105.44C67.145 105.351 67.0878 105.27 67.0064 105.199C66.9307 105.124 66.8278 105.061 66.6992 105.014C66.5764 104.968 66.4235 104.943 66.242 104.943ZM68.3138 109.929C68.0666 110.18 67.8266 110.395 67.5922 110.575C67.3593 110.755 67.1193 110.904 66.8707 111.021C66.6278 111.139 66.3734 111.224 66.1062 111.277C65.8405 111.334 65.549 111.362 65.2347 111.362C64.8203 111.362 64.4445 111.294 64.1059 111.156C63.7729 111.014 63.4901 110.816 63.2557 110.56C63.0228 110.305 62.8414 109.997 62.7128 109.639C62.5899 109.274 62.5271 108.868 62.5271 108.419C62.5271 108.046 62.5656 107.677 62.6413 107.312C62.7228 106.943 62.84 106.596 62.9914 106.27C63.1443 105.939 63.33 105.631 63.5487 105.348C63.7687 105.064 64.0188 104.82 64.2988 104.617C64.5803 104.409 64.8903 104.248 65.2275 104.135C65.5662 104.017 65.9305 103.958 66.3206 103.958C66.6921 103.958 67.0135 104.01 67.285 104.114C67.5565 104.217 67.7808 104.352 67.9566 104.518C68.1381 104.678 68.2709 104.858 68.3567 105.057C68.4424 105.256 68.4853 105.45 68.4853 105.639C68.4853 105.951 68.421 106.238 68.2924 106.504C68.1638 106.763 67.928 107 67.5851 107.213C67.2479 107.421 66.7807 107.603 66.1848 107.759C65.5904 107.915 64.826 108.04 63.8916 108.135C63.8873 108.178 63.8844 108.22 63.8844 108.263C63.8844 108.305 63.8844 108.348 63.8844 108.39C63.8844 109.01 64.0187 109.478 64.2845 109.795C64.556 110.111 64.9632 110.27 65.5061 110.27C65.7305 110.27 65.9305 110.248 66.1062 110.206C66.2834 110.159 66.4377 110.102 66.5706 110.036C66.7092 109.969 66.8307 109.898 66.935 109.823C67.0407 109.742 67.135 109.67 67.2207 109.603C67.3122 109.536 67.3951 109.482 67.4708 109.44C67.548 109.393 67.6265 109.369 67.7065 109.369C67.7594 109.369 67.8051 109.383 67.8423 109.412C67.8851 109.436 67.9266 109.465 67.9638 109.504L68.3138 109.929Z" fill="#192E5B"/>
<path d="M71.3429 105.78C71.7287 105.175 72.1602 104.719 72.636 104.412C73.1118 104.104 73.6033 103.951 74.1077 103.951C74.4121 103.951 74.6821 104.012 74.915 104.135C75.1536 104.253 75.3465 104.429 75.4937 104.66C75.6408 104.891 75.7409 105.178 75.7937 105.518C75.8509 105.854 75.8509 106.239 75.7937 106.674L75.2507 111.263H73.8577L74.4078 106.674C74.4749 106.131 74.4406 105.734 74.3077 105.482C74.1791 105.227 73.9391 105.099 73.5862 105.099C73.3676 105.099 73.1432 105.161 72.9146 105.284C72.686 105.402 72.4646 105.572 72.2502 105.795C72.0402 106.012 71.843 106.277 71.6572 106.589C71.4758 106.901 71.3243 107.248 71.2 107.631L70.7928 111.263H69.3997L70.2642 104.043H70.9643C71.1172 104.043 71.2329 104.081 71.3143 104.156C71.3958 104.231 71.4358 104.351 71.4358 104.511L71.3429 105.78Z" fill="#192E5B"/>
<path d="M84.0438 105.156H84.0366L83.2865 111.263H81.9362L82.6936 105.156H79.3929L78.9643 108.61C78.94 108.804 78.9214 108.961 78.9072 109.078C78.8929 109.196 78.8814 109.291 78.8714 109.362C78.8671 109.429 78.8643 109.475 78.8643 109.504C78.8643 109.532 78.8643 109.553 78.8643 109.568C78.8643 109.79 78.9171 109.958 79.0214 110.071C79.1315 110.185 79.2787 110.241 79.4644 110.241C79.583 110.241 79.6859 110.224 79.7716 110.192C79.8616 110.159 79.9388 110.124 80.0002 110.085C80.0674 110.043 80.1216 110.004 80.1645 109.972C80.2117 109.939 80.2545 109.922 80.2931 109.922C80.3403 109.922 80.3746 109.934 80.3931 109.958C80.4174 109.976 80.4403 110.01 80.4646 110.057L80.7646 110.724C80.5217 110.932 80.2502 111.092 79.9502 111.206C79.6501 111.319 79.3458 111.376 79.0357 111.376C78.5599 111.376 78.1827 111.248 77.907 110.993C77.6355 110.734 77.4926 110.359 77.4783 109.873C77.4783 109.844 77.4783 109.809 77.4783 109.766C77.4826 109.719 77.4883 109.653 77.4926 109.568C77.5026 109.482 77.514 109.369 77.5283 109.227C77.5426 109.085 77.5641 108.904 77.5926 108.681L78.0284 105.156H77.2783C77.2026 105.156 77.1397 105.132 77.0925 105.085C77.0454 105.033 77.0254 104.96 77.0354 104.865L77.1068 104.334L78.1999 104.17L78.7571 102.007C78.7814 101.926 78.8214 101.865 78.8786 101.823C78.9357 101.776 79.0043 101.752 79.0858 101.752H79.8216L79.5144 104.185H84.1581L84.0438 105.156ZM84.7796 101.83C84.7796 101.958 84.751 102.081 84.6939 102.199C84.641 102.312 84.5696 102.414 84.4796 102.504C84.3939 102.589 84.2939 102.657 84.1796 102.709C84.0652 102.756 83.9481 102.78 83.8295 102.78C83.7109 102.78 83.5966 102.756 83.4866 102.709C83.3765 102.657 83.2794 102.589 83.1936 102.504C83.1122 102.414 83.0465 102.312 82.9936 102.199C82.9465 102.081 82.9222 101.958 82.9222 101.83C82.9222 101.702 82.9465 101.582 82.9936 101.468C83.0465 101.351 83.1151 101.248 83.2008 101.163C83.2865 101.074 83.3836 101.003 83.4937 100.951C83.6037 100.898 83.718 100.873 83.8366 100.873C83.9552 100.873 84.0724 100.898 84.1867 100.951C84.301 100.997 84.401 101.067 84.4867 101.156C84.5768 101.241 84.6482 101.343 84.7011 101.461C84.7539 101.575 84.7796 101.698 84.7796 101.83Z" fill="#192E5B"/>
<path d="M90.1249 105C89.9391 104.972 89.7548 104.958 89.5748 104.958C89.1504 104.958 88.7532 105.057 88.3817 105.256C88.0102 105.45 87.6859 105.712 87.4101 106.043C87.1386 106.373 86.9215 106.759 86.76 107.199C86.6028 107.634 86.5242 108.09 86.5242 108.568C86.5242 109.121 86.6142 109.535 86.7957 109.809C86.9757 110.078 87.2386 110.213 87.5816 110.213C87.8045 110.213 88.0245 110.142 88.2388 110C88.4575 109.854 88.6618 109.656 88.8533 109.404C89.0476 109.149 89.2262 108.848 89.3891 108.504C89.5548 108.159 89.7005 107.783 89.8248 107.376L90.1249 105ZM89.6391 109.461C89.4719 109.749 89.2904 110.012 89.0961 110.248C88.9047 110.48 88.7004 110.678 88.4818 110.844C88.2674 111.01 88.0388 111.138 87.7959 111.227C87.5573 111.317 87.3101 111.362 87.0529 111.362C86.7671 111.362 86.5043 111.308 86.2671 111.199C86.0327 111.085 85.8312 110.922 85.6598 110.709C85.4926 110.492 85.3612 110.224 85.2669 109.908C85.1754 109.592 85.1311 109.227 85.1311 108.816C85.1311 108.39 85.1826 107.975 85.2883 107.568C85.3969 107.156 85.5526 106.77 85.7527 106.412C85.9527 106.053 86.1899 105.721 86.4671 105.419C86.7471 105.116 87.0601 104.856 87.403 104.639C87.7459 104.421 88.1145 104.253 88.5103 104.135C88.9104 104.012 89.3262 103.951 89.7605 103.951C90.0749 103.951 90.3821 103.976 90.6821 104.029C90.9865 104.075 91.2865 104.16 91.5823 104.284L90.7107 111.263H89.982C89.8005 111.263 89.6791 111.217 89.6177 111.128C89.5548 111.033 89.5248 110.919 89.5248 110.787L89.6391 109.461Z" fill="#192E5B"/>
<path d="M92.5639 111.263L93.8427 100.795H95.2144L93.9356 111.263H92.5639Z" fill="#192E5B"/>
<path d="M110.616 101.078L109.351 111.263H108.072L108.98 103.972C108.994 103.868 109.014 103.755 109.037 103.631C109.061 103.508 109.087 103.383 109.115 103.256L105.229 109.504C105.096 109.726 104.908 109.837 104.665 109.837H104.465C104.217 109.837 104.053 109.726 103.972 109.504L101.593 103.256C101.588 103.379 101.581 103.501 101.571 103.624C101.567 103.742 101.56 103.851 101.55 103.951L100.65 111.263H99.3637L100.621 101.078H101.707C101.836 101.078 101.931 101.092 101.993 101.121C102.056 101.149 102.12 101.216 102.186 101.319L104.579 107.568C104.618 107.667 104.65 107.769 104.679 107.873C104.708 107.976 104.735 108.082 104.758 108.192C104.806 108.082 104.856 107.976 104.908 107.873C104.96 107.769 105.018 107.667 105.079 107.568L108.994 101.319C109.043 101.267 109.083 101.227 109.115 101.199C109.154 101.166 109.193 101.139 109.23 101.121C109.268 101.102 109.308 101.09 109.351 101.085C109.4 101.081 109.457 101.078 109.523 101.078H110.616Z" fill="#192E5B"/>
<path d="M114.982 104.943C114.696 104.943 114.434 105.003 114.196 105.121C113.958 105.234 113.743 105.395 113.553 105.603C113.362 105.806 113.2 106.047 113.068 106.326C112.933 106.6 112.829 106.901 112.753 107.227C113.453 107.138 114.012 107.039 114.432 106.929C114.855 106.82 115.182 106.702 115.411 106.575C115.64 106.443 115.79 106.302 115.861 106.156C115.937 106.01 115.975 105.854 115.975 105.688C115.975 105.607 115.955 105.525 115.918 105.44C115.884 105.351 115.827 105.27 115.747 105.199C115.67 105.124 115.568 105.061 115.439 105.014C115.315 104.968 115.162 104.943 114.982 104.943ZM117.054 109.929C116.805 110.18 116.565 110.395 116.332 110.575C116.098 110.755 115.858 110.904 115.611 111.021C115.368 111.139 115.112 111.224 114.846 111.277C114.579 111.334 114.289 111.362 113.975 111.362C113.561 111.362 113.183 111.294 112.846 111.156C112.512 111.014 112.229 110.816 111.996 110.56C111.762 110.305 111.582 109.997 111.453 109.639C111.329 109.274 111.267 108.868 111.267 108.419C111.267 108.046 111.304 107.677 111.382 107.312C111.462 106.943 111.579 106.596 111.732 106.27C111.883 105.939 112.069 105.631 112.289 105.348C112.508 105.064 112.758 104.82 113.039 104.617C113.319 104.409 113.629 104.248 113.968 104.135C114.305 104.017 114.669 103.958 115.061 103.958C115.432 103.958 115.754 104.01 116.025 104.114C116.297 104.217 116.52 104.352 116.697 104.518C116.877 104.678 117.011 104.858 117.097 105.057C117.183 105.256 117.226 105.45 117.226 105.639C117.226 105.951 117.161 106.238 117.033 106.504C116.904 106.763 116.668 107 116.325 107.213C115.987 107.421 115.519 107.603 114.925 107.759C114.329 107.915 113.565 108.04 112.632 108.135C112.626 108.178 112.625 108.22 112.625 108.263C112.625 108.305 112.625 108.348 112.625 108.39C112.625 109.01 112.758 109.478 113.025 109.795C113.296 110.111 113.703 110.27 114.246 110.27C114.469 110.27 114.669 110.248 114.846 110.206C115.022 110.159 115.177 110.102 115.311 110.036C115.448 109.969 115.57 109.898 115.675 109.823C115.78 109.742 115.875 109.67 115.961 109.603C116.051 109.536 116.134 109.482 116.211 109.44C116.287 109.393 116.365 109.369 116.447 109.369C116.498 109.369 116.544 109.383 116.583 109.412C116.625 109.436 116.665 109.465 116.704 109.504L117.054 109.929Z" fill="#192E5B"/>
<path d="M121.819 104.943C121.533 104.943 121.272 105.003 121.033 105.121C120.795 105.234 120.58 105.395 120.39 105.603C120.2 105.806 120.037 106.047 119.905 106.326C119.772 106.6 119.666 106.901 119.59 107.227C120.29 107.138 120.85 107.039 121.269 106.929C121.693 106.82 122.019 106.702 122.248 106.575C122.476 106.443 122.626 106.302 122.698 106.156C122.774 106.01 122.812 105.854 122.812 105.688C122.812 105.607 122.794 105.525 122.755 105.44C122.722 105.351 122.665 105.27 122.584 105.199C122.508 105.124 122.405 105.061 122.276 105.014C122.152 104.968 122.001 104.943 121.819 104.943ZM123.891 109.929C123.644 110.18 123.402 110.395 123.169 110.575C122.937 110.755 122.695 110.904 122.448 111.021C122.205 111.139 121.951 111.224 121.683 111.277C121.416 111.334 121.126 111.362 120.812 111.362C120.398 111.362 120.022 111.294 119.683 111.156C119.35 111.014 119.066 110.816 118.833 110.56C118.6 110.305 118.419 109.997 118.29 109.639C118.166 109.274 118.104 108.868 118.104 108.419C118.104 108.046 118.143 107.677 118.219 107.312C118.3 106.943 118.416 106.596 118.569 106.27C118.721 105.939 118.907 105.631 119.126 105.348C119.344 105.064 119.595 104.82 119.876 104.617C120.157 104.409 120.466 104.248 120.805 104.135C121.143 104.017 121.508 103.958 121.898 103.958C122.269 103.958 122.591 104.01 122.862 104.114C123.134 104.217 123.358 104.352 123.534 104.518C123.715 104.678 123.848 104.858 123.934 105.057C124.02 105.256 124.062 105.45 124.062 105.639C124.062 105.951 123.998 106.238 123.87 106.504C123.741 106.763 123.505 107 123.162 107.213C122.824 107.421 122.358 107.603 121.762 107.759C121.166 107.915 120.402 108.04 119.469 108.135C119.465 108.178 119.462 108.22 119.462 108.263C119.462 108.305 119.462 108.348 119.462 108.39C119.462 109.01 119.594 109.478 119.862 109.795C120.133 110.111 120.54 110.27 121.083 110.27C121.308 110.27 121.508 110.248 121.683 110.206C121.859 110.159 122.015 110.102 122.148 110.036C122.286 109.969 122.408 109.898 122.512 109.823C122.616 109.742 122.712 109.67 122.798 109.603C122.888 109.536 122.972 109.482 123.048 109.44C123.124 109.393 123.202 109.369 123.284 109.369C123.337 109.369 123.381 109.383 123.42 109.412C123.462 109.436 123.502 109.465 123.541 109.504L123.891 109.929Z" fill="#192E5B"/>
<path d="M125.5 109.873C125.5 109.844 125.5 109.809 125.5 109.766C125.5 109.719 125.501 109.653 125.507 109.568C125.516 109.482 125.528 109.369 125.543 109.227C125.561 109.085 125.586 108.904 125.614 108.681L126.05 105.178H125.271C125.2 105.178 125.14 105.153 125.093 105.107C125.05 105.054 125.036 104.979 125.05 104.88L125.114 104.319L126.221 104.156L126.779 102.007C126.802 101.926 126.84 101.865 126.893 101.823C126.95 101.776 127.019 101.752 127.1 101.752H127.843L127.536 104.17H129.401L129.286 105.178H127.414L126.986 108.61C126.962 108.804 126.943 108.961 126.929 109.078C126.914 109.196 126.902 109.291 126.893 109.362C126.887 109.429 126.883 109.475 126.879 109.504C126.879 109.532 126.879 109.553 126.879 109.568C126.879 109.79 126.933 109.958 127.043 110.071C127.152 110.185 127.297 110.241 127.479 110.241C127.597 110.241 127.7 110.224 127.786 110.192C127.876 110.159 127.955 110.124 128.022 110.085C128.087 110.043 128.143 110.004 128.186 109.972C128.233 109.939 128.276 109.922 128.315 109.922C128.358 109.922 128.39 109.934 128.415 109.958C128.438 109.976 128.462 110.01 128.486 110.057L128.779 110.724C128.536 110.932 128.265 111.092 127.965 111.206C127.665 111.319 127.362 111.376 127.057 111.376C126.58 111.376 126.204 111.248 125.929 110.993C125.651 110.734 125.508 110.359 125.5 109.873Z" fill="#192E5B"/>
<path d="M134.743 105.263C134.7 105.324 134.657 105.369 134.614 105.397C134.576 105.421 134.526 105.433 134.464 105.433C134.393 105.433 134.316 105.407 134.236 105.355C134.159 105.302 134.064 105.246 133.95 105.185C133.84 105.124 133.707 105.067 133.55 105.014C133.393 104.962 133.201 104.936 132.978 104.936C132.768 104.936 132.58 104.965 132.414 105.021C132.247 105.078 132.101 105.156 131.978 105.256C131.858 105.351 131.765 105.464 131.7 105.596C131.637 105.728 131.607 105.868 131.607 106.014C131.607 106.175 131.65 106.309 131.735 106.419C131.821 106.528 131.932 106.624 132.071 106.709C132.208 106.79 132.365 106.863 132.543 106.929C132.723 106.996 132.907 107.067 133.093 107.142C133.278 107.213 133.458 107.294 133.636 107.383C133.816 107.473 133.976 107.585 134.114 107.717C134.251 107.844 134.364 108 134.45 108.185C134.536 108.369 134.579 108.589 134.579 108.844C134.579 109.18 134.511 109.501 134.379 109.809C134.244 110.111 134.051 110.38 133.8 110.617C133.551 110.848 133.251 111.033 132.9 111.17C132.547 111.308 132.151 111.376 131.714 111.376C131.251 111.376 130.839 111.294 130.478 111.128C130.115 110.962 129.822 110.752 129.599 110.497L129.942 109.965C130.032 109.827 130.154 109.759 130.306 109.759C130.386 109.759 130.465 109.792 130.542 109.858C130.622 109.925 130.721 109.997 130.835 110.078C130.949 110.153 131.089 110.224 131.257 110.291C131.422 110.358 131.637 110.39 131.9 110.39C132.123 110.39 132.323 110.358 132.5 110.291C132.68 110.224 132.833 110.138 132.957 110.029C133.08 109.915 133.173 109.785 133.236 109.639C133.301 109.492 133.336 109.336 133.336 109.17C133.336 108.996 133.293 108.848 133.207 108.731C133.121 108.607 133.008 108.507 132.871 108.426C132.733 108.341 132.573 108.267 132.393 108.206C132.215 108.139 132.035 108.074 131.85 108.007C131.668 107.936 131.487 107.861 131.307 107.78C131.129 107.695 130.972 107.589 130.835 107.461C130.697 107.334 130.585 107.18 130.499 107C130.414 106.816 130.371 106.593 130.371 106.334C130.371 106.026 130.432 105.731 130.557 105.447C130.679 105.159 130.857 104.904 131.085 104.681C131.318 104.458 131.6 104.281 131.928 104.149C132.261 104.017 132.637 103.951 133.057 103.951C133.504 103.951 133.894 104.024 134.229 104.17C134.566 104.312 134.857 104.508 135.1 104.759L134.743 105.263Z" fill="#192E5B"/>
<path d="M140.798 111.263H139.327L140.577 101.078H142.056L140.798 111.263Z" fill="#192E5B"/>
<path d="M142.816 111.263L143.695 104.043H144.395C144.546 104.043 144.663 104.081 144.745 104.156C144.825 104.231 144.866 104.351 144.866 104.511L144.781 105.667C145.128 105.099 145.509 104.671 145.924 104.383C146.338 104.095 146.777 103.951 147.238 103.951C147.714 103.951 148.071 104.111 148.31 104.433C148.553 104.755 148.678 105.22 148.688 105.83C149.046 105.187 149.443 104.714 149.881 104.412C150.324 104.104 150.796 103.951 151.296 103.951C151.919 103.951 152.365 104.185 152.632 104.653C152.898 105.121 152.978 105.795 152.868 106.674L152.325 111.263H150.953L151.496 106.674C151.562 106.135 151.546 105.738 151.446 105.482C151.346 105.227 151.129 105.099 150.796 105.099C150.596 105.099 150.397 105.149 150.203 105.248C150.007 105.348 149.819 105.497 149.639 105.695C149.457 105.89 149.288 106.128 149.131 106.412C148.974 106.695 148.836 107.021 148.717 107.39L148.253 111.263H146.881L147.424 106.674C147.457 106.404 147.471 106.17 147.467 105.972C147.467 105.773 147.44 105.61 147.388 105.482C147.34 105.355 147.264 105.26 147.16 105.199C147.059 105.132 146.925 105.099 146.759 105.099C146.539 105.099 146.328 105.156 146.124 105.27C145.924 105.379 145.732 105.536 145.552 105.745C145.375 105.953 145.209 106.206 145.052 106.504C144.899 106.797 144.76 107.131 144.638 107.504L144.18 111.263H142.816Z" fill="#192E5B"/>
<path d="M155.634 109.653C155.81 109.884 156.02 110.05 156.263 110.149C156.506 110.244 156.748 110.291 156.991 110.291C157.228 110.291 157.453 110.241 157.663 110.142C157.877 110.043 158.07 109.908 158.242 109.738C158.417 109.563 158.574 109.359 158.713 109.128C158.85 108.897 158.967 108.65 159.063 108.39C159.157 108.125 159.229 107.851 159.277 107.568C159.329 107.284 159.356 107.003 159.356 106.724C159.356 106.175 159.257 105.762 159.063 105.482C158.867 105.199 158.592 105.057 158.234 105.057C158.014 105.057 157.791 105.128 157.563 105.27C157.338 105.407 157.121 105.599 156.913 105.844C156.707 106.085 156.514 106.373 156.334 106.709C156.153 107.046 155.995 107.412 155.863 107.809L155.634 109.653ZM156.027 105.901C156.207 105.603 156.403 105.336 156.613 105.099C156.821 104.858 157.041 104.653 157.27 104.482C157.503 104.312 157.746 104.182 157.999 104.092C158.25 103.997 158.507 103.951 158.77 103.951C159.379 103.951 159.857 104.173 160.206 104.617C160.558 105.061 160.735 105.719 160.735 106.589C160.735 106.982 160.692 107.373 160.606 107.766C160.525 108.153 160.408 108.525 160.256 108.88C160.108 109.234 159.928 109.563 159.713 109.865C159.499 110.168 159.26 110.43 158.999 110.653C158.736 110.875 158.453 111.05 158.149 111.178C157.849 111.301 157.531 111.362 157.198 111.362C156.85 111.362 156.534 111.295 156.248 111.163C155.963 111.026 155.717 110.837 155.512 110.596L155.134 113.681H153.776L154.955 104.043H155.655C155.807 104.043 155.924 104.081 156.005 104.156C156.085 104.231 156.127 104.351 156.127 104.511L156.027 105.901Z" fill="#192E5B"/>
<path d="M166.603 105C166.417 104.972 166.234 104.958 166.053 104.958C165.63 104.958 165.231 105.057 164.86 105.256C164.488 105.45 164.165 105.712 163.888 106.043C163.617 106.373 163.401 106.759 163.238 107.199C163.081 107.634 163.002 108.09 163.002 108.568C163.002 109.121 163.094 109.535 163.274 109.809C163.455 110.078 163.717 110.213 164.06 110.213C164.284 110.213 164.503 110.142 164.717 110C164.937 109.854 165.141 109.656 165.331 109.404C165.527 109.149 165.706 108.848 165.867 108.504C166.034 108.159 166.18 107.783 166.303 107.376L166.603 105ZM166.117 109.461C165.951 109.749 165.77 110.012 165.574 110.248C165.384 110.48 165.18 110.678 164.96 110.844C164.746 111.01 164.517 111.138 164.274 111.227C164.037 111.317 163.788 111.362 163.531 111.362C163.245 111.362 162.984 111.308 162.745 111.199C162.512 111.085 162.309 110.922 162.138 110.709C161.972 110.492 161.841 110.224 161.745 109.908C161.655 109.592 161.609 109.227 161.609 108.816C161.609 108.39 161.662 107.975 161.766 107.568C161.876 107.156 162.031 106.77 162.231 106.412C162.431 106.053 162.669 105.721 162.945 105.419C163.227 105.116 163.538 104.856 163.881 104.639C164.224 104.421 164.594 104.253 164.988 104.135C165.389 104.012 165.806 103.951 166.239 103.951C166.553 103.951 166.86 103.976 167.16 104.029C167.466 104.075 167.766 104.16 168.06 104.284L167.189 111.263H166.46C166.28 111.263 166.159 111.217 166.096 111.128C166.034 111.033 166.003 110.919 166.003 110.787L166.117 109.461Z" fill="#192E5B"/>
<path d="M174.486 109.972C174.243 110.241 174.01 110.465 173.786 110.646C173.561 110.826 173.336 110.969 173.107 111.078C172.883 111.182 172.65 111.256 172.407 111.298C172.168 111.341 171.907 111.362 171.621 111.362C171.202 111.362 170.828 111.291 170.499 111.149C170.175 111.007 169.902 110.806 169.678 110.546C169.459 110.287 169.292 109.975 169.178 109.61C169.064 109.246 169.006 108.841 169.006 108.397C169.006 108.01 169.046 107.631 169.128 107.263C169.214 106.89 169.335 106.539 169.492 106.213C169.649 105.882 169.839 105.579 170.064 105.305C170.288 105.026 170.538 104.787 170.814 104.589C171.09 104.386 171.39 104.23 171.714 104.121C172.043 104.007 172.39 103.951 172.757 103.951C173.238 103.951 173.64 104.036 173.964 104.206C174.293 104.376 174.582 104.624 174.829 104.951L174.393 105.475C174.354 105.514 174.312 105.546 174.264 105.575C174.222 105.603 174.174 105.617 174.122 105.617C174.054 105.617 173.989 105.589 173.921 105.532C173.854 105.475 173.771 105.414 173.671 105.348C173.571 105.277 173.446 105.213 173.293 105.156C173.146 105.099 172.954 105.071 172.721 105.071C172.407 105.071 172.11 105.156 171.828 105.326C171.547 105.492 171.302 105.724 171.092 106.021C170.882 106.319 170.717 106.671 170.592 107.078C170.468 107.485 170.407 107.926 170.407 108.404C170.407 108.688 170.439 108.946 170.507 109.178C170.574 109.409 170.668 109.606 170.792 109.766C170.921 109.926 171.078 110.053 171.264 110.142C171.454 110.227 171.671 110.27 171.914 110.27C172.118 110.27 172.3 110.248 172.457 110.206C172.618 110.163 172.76 110.111 172.878 110.05C173.003 109.989 173.111 109.919 173.207 109.844C173.303 109.769 173.389 109.7 173.464 109.639C173.54 109.578 173.611 109.525 173.679 109.482C173.746 109.44 173.811 109.419 173.879 109.419C173.974 109.419 174.06 109.461 174.136 109.546L174.486 109.972Z" fill="#192E5B"/>
<path d="M176.08 109.873C176.08 109.844 176.08 109.809 176.08 109.766C176.08 109.719 176.083 109.653 176.088 109.568C176.098 109.482 176.109 109.369 176.123 109.227C176.142 109.085 176.166 108.904 176.195 108.681L176.631 105.178H175.852C175.78 105.178 175.72 105.153 175.673 105.107C175.63 105.054 175.616 104.979 175.63 104.88L175.695 104.319L176.802 104.156L177.359 102.007C177.384 101.926 177.421 101.865 177.474 101.823C177.531 101.776 177.599 101.752 177.681 101.752H178.424L178.117 104.17H179.981L179.867 105.178H177.995L177.566 108.61C177.542 108.804 177.524 108.961 177.509 109.078C177.495 109.196 177.484 109.291 177.474 109.362C177.469 109.429 177.464 109.475 177.459 109.504C177.459 109.532 177.459 109.553 177.459 109.568C177.459 109.79 177.514 109.958 177.624 110.071C177.734 110.185 177.878 110.241 178.059 110.241C178.178 110.241 178.281 110.224 178.367 110.192C178.457 110.159 178.535 110.124 178.602 110.085C178.669 110.043 178.724 110.004 178.767 109.972C178.814 109.939 178.857 109.922 178.895 109.922C178.938 109.922 178.971 109.934 178.995 109.958C179.02 109.976 179.042 110.01 179.067 110.057L179.36 110.724C179.117 110.932 178.845 111.092 178.545 111.206C178.245 111.319 177.942 111.376 177.638 111.376C177.162 111.376 176.785 111.248 176.509 110.993C176.233 110.734 176.09 110.359 176.08 109.873Z" fill="#192E5B"/>
<path d="M172.76 95.6598L147.298 54.1703C146.226 55.6171 145.048 57.6597 143.762 60.298C142.476 62.8938 141.618 65.7023 141.19 68.7235C140.718 71.7023 141.211 74.5108 142.669 77.1491L153.085 95.6598H172.76Z" fill="#F39F03"/>
<path d="M115.407 95.6598L171.345 2.85108H151.027L135.21 33.3618L133.924 37.3192L132.895 33.3618L117.078 2.85108H96.8889L124.794 48.681L95.4744 95.6598H115.407Z" fill="#00743F"/>
</g>
<defs>
<clipPath id="clip0_40_141">
<rect width="292.474" height="113.681" fill="white"/>
</clipPath>
</defs>
</svg>
