<svg width="195" height="200" viewBox="0 0 195 200" fill="none" xmlns="http://www.w3.org/2000/svg">
<g clip-path="url(#clip0_40_140)">
<path d="M100.618 3.29528C99.546 1.44495 99.0102 0.519784 98.3084 0.206734C97.6963 -0.0663619 96.9964 -0.0689979 96.3822 0.199481C95.678 0.507218 95.1352 1.42834 94.0495 3.27056L79.8943 27.288C78.892 28.9891 78.3908 29.8395 78.1417 30.7643C77.924 31.5724 77.8511 32.4463 77.9318 33.2792C78.0244 34.2321 78.3696 35.1313 79.06 36.9303C94.8577 78.0894 118.418 120.085 169.718 134.911C172.215 135.633 173.464 135.993 174.269 135.627C174.945 135.318 175.469 134.654 175.609 133.926C175.776 133.063 175.11 131.911 173.776 129.609L100.618 3.29528Z" fill="#00743F"/>
<path d="M24.5862 136.271C21.8938 137.289 20.5476 137.798 19.6946 137.465C18.9761 137.185 18.4062 136.52 18.2417 135.769C18.0463 134.879 18.7798 133.609 20.2471 131.071L43.5241 90.7951L66.8011 50.5195C67.8417 48.7187 68.3621 47.8185 69.1109 47.5109C69.7302 47.2568 70.5316 47.2943 71.1243 47.6052C71.8406 47.9812 72.2475 48.8686 73.0611 50.6438C86.4478 79.8504 74.9201 117.251 24.5862 136.271Z" fill="#F39F03"/>
<path d="M2.25106 163.199C0.722759 165.074 -0.0413908 166.012 0.00172817 166.912C0.0368035 167.644 0.501988 168.427 1.12957 168.812C1.90107 169.284 3.20574 169.05 5.81507 168.585C23.6596 165.399 66.9141 158.285 97.3496 158.285C127.789 158.285 171.05 165.399 188.894 168.585C191.262 169.007 192.445 169.219 193.229 168.718C193.849 168.321 194.319 167.467 194.321 166.735C194.322 165.807 193.591 165.019 192.125 163.441C185.841 156.681 177.401 152.156 169.294 147.656C110.886 115.229 78.7593 113.114 12.3104 154.742C7.82262 157.553 4.86665 159.989 2.25106 163.199Z" fill="#192E5B"/>
<path d="M75.7188 176.833C74.2929 175.146 73.5802 174.304 73.5455 173.5C73.5163 172.815 73.8109 172.112 74.3209 171.651C74.9197 171.11 76.0002 171.023 78.1614 170.849C82.7493 170.478 89.2313 170.097 96.4162 170.097C103.601 170.097 110.083 170.478 114.67 170.849C116.831 171.023 117.912 171.11 118.51 171.651C119.02 172.112 119.315 172.815 119.286 173.5C119.251 174.304 118.538 175.146 117.112 176.833L99.3224 197.87C98.3231 199.051 97.8236 199.643 97.2265 199.859C96.7027 200.047 96.1285 200.047 95.6049 199.859C95.0078 199.643 94.5083 199.051 93.5089 197.87L75.7188 176.833Z" fill="#F39F03"/>
</g>
<defs>
<clipPath id="clip0_40_140">
<rect width="194.321" height="200" fill="white"/>
</clipPath>
</defs>
</svg>
