<svg width="505" height="200" viewBox="0 0 505 200" fill="none" xmlns="http://www.w3.org/2000/svg">
<g clip-path="url(#clip0_40_356)">
<path d="M100.618 3.29528C99.546 1.44495 99.0102 0.519784 98.3084 0.206734C97.6963 -0.0663619 96.9964 -0.068998 96.3822 0.199481C95.678 0.507218 95.1352 1.42834 94.0495 3.27056L79.8943 27.288C78.892 28.9891 78.3908 29.8395 78.1417 30.7643C77.924 31.5724 77.8511 32.4463 77.9318 33.2792C78.0244 34.2321 78.3696 35.1313 79.06 36.9303C94.8577 78.0894 118.418 120.085 169.718 134.911C172.215 135.633 173.464 135.993 174.269 135.627C174.945 135.318 175.469 134.654 175.609 133.926C175.776 133.063 175.11 131.911 173.776 129.609L100.618 3.29528Z" fill="white"/>
<path d="M24.5862 136.271C21.8938 137.289 20.5476 137.798 19.6946 137.465C18.9761 137.185 18.4062 136.52 18.2417 135.769C18.0463 134.879 18.7798 133.609 20.2471 131.071L43.5241 90.7951L66.8011 50.5195C67.8417 48.7187 68.3621 47.8185 69.1109 47.5109C69.7302 47.2568 70.5316 47.2943 71.1243 47.6052C71.8406 47.9812 72.2475 48.8686 73.0611 50.6438C86.4478 79.8504 74.9201 117.251 24.5862 136.271Z" fill="white"/>
<path d="M2.25106 163.199C0.722759 165.074 -0.0413908 166.012 0.00172817 166.912C0.0368035 167.644 0.501988 168.427 1.12957 168.812C1.90107 169.284 3.20574 169.05 5.81507 168.585C23.6596 165.399 66.9141 158.285 97.3496 158.285C127.789 158.285 171.05 165.399 188.894 168.585C191.262 169.007 192.445 169.219 193.229 168.718C193.849 168.321 194.319 167.467 194.321 166.735C194.322 165.807 193.591 165.019 192.125 163.441C185.841 156.681 177.401 152.156 169.294 147.656C110.886 115.229 78.7593 113.114 12.3104 154.742C7.82262 157.553 4.86665 159.989 2.25106 163.199Z" fill="white"/>
<path d="M75.7188 176.833C74.2929 175.146 73.5802 174.304 73.5455 173.5C73.5163 172.815 73.8109 172.112 74.3209 171.651C74.9197 171.11 76.0002 171.023 78.1614 170.849C82.7493 170.478 89.2313 170.097 96.4162 170.097C103.601 170.097 110.083 170.478 114.67 170.849C116.831 171.023 117.912 171.11 118.51 171.651C119.02 172.112 119.315 172.815 119.286 173.5C119.251 174.304 118.538 175.146 117.112 176.833L99.3224 197.87C98.3231 199.051 97.8236 199.643 97.2265 199.859C96.7027 200.047 96.1285 200.047 95.6049 199.859C95.0078 199.643 94.5083 199.051 93.5089 197.87L75.7188 176.833Z" fill="white"/>
<path d="M215.325 139.007L232.106 92.603L248.888 46.1987H266.891L300.454 139.007H281.422L258.275 69.9434L257.247 65.22L256.089 70.1987L245.159 103.263L243.616 105.816L245.544 105.56H255.318C257.804 105.56 259.883 106.263 261.555 107.667C263.269 109.071 264.641 110.795 265.669 112.837C266.741 114.88 267.577 116.837 268.177 118.709H240.272L233.457 139.007H215.325Z" fill="white"/>
<path d="M399.435 154.61V45.3022H417.686V154.61H399.435Z" fill="white"/>
<path d="M467.439 156.49C463.147 156.49 458.124 155.938 452.369 154.836C446.614 153.734 440.605 151.728 434.346 148.822L439.42 136.492C444.518 138.798 449.416 140.427 454.111 141.379C458.856 142.331 463.097 142.807 466.833 142.807C472.891 142.807 477.762 141.254 481.449 138.146C485.134 135.039 486.977 131.305 486.977 126.945C486.977 123.036 485.739 119.703 483.266 116.946C480.791 114.19 477.611 111.709 473.724 109.504C469.836 107.298 465.697 105.093 461.305 102.888C456.963 100.683 452.848 98.202 448.961 95.4456C445.123 92.6389 441.969 89.3311 439.495 85.5221C437.021 81.663 435.785 76.9519 435.785 71.3888C435.785 65.4247 437.223 60.3628 440.101 56.2029C442.979 52.0431 446.841 48.8607 451.688 46.6554C456.584 44.4502 462.036 43.3476 468.045 43.3476C472.588 43.3476 477.056 43.6734 481.449 44.3249C485.841 44.9764 490.965 46.2544 496.821 48.159L491.823 60.3377C487.431 59.0346 483.392 58.1325 479.707 57.6313C476.02 57.08 472.613 56.8044 469.484 56.8044C464.486 56.8044 460.572 58.1075 457.746 60.7136C454.918 63.3197 453.505 66.5023 453.505 70.2611C453.505 73.8696 454.741 77.002 457.216 79.6583C459.689 82.2644 462.87 84.6701 466.757 86.8753C470.695 89.0806 474.86 91.3609 479.253 93.7165C483.645 96.0219 487.784 98.6281 491.672 101.535C495.61 104.442 498.815 107.925 501.289 111.985C503.763 116.044 505 120.956 505 126.719C505 132.633 503.46 137.821 500.381 142.281C497.351 146.742 493.009 150.224 487.355 152.731C481.752 155.237 475.112 156.49 467.439 156.49Z" fill="white"/>
<path d="M225.885 144.426L221.684 154.61H220.356L219.027 146.979C219.013 146.898 218.998 146.813 218.984 146.724C218.974 146.629 218.965 146.528 218.955 146.419C218.884 146.627 218.815 146.813 218.748 146.979L215.526 154.61H214.212L212.526 144.426H213.676C213.804 144.426 213.907 144.457 213.983 144.518C214.064 144.579 214.109 144.663 214.119 144.766L215.176 151.724C215.186 151.856 215.195 151.997 215.205 152.149C215.219 152.295 215.23 152.451 215.24 152.617C215.293 152.451 215.345 152.294 215.398 152.142C215.455 151.99 215.509 151.851 215.562 151.724L218.505 144.766C218.544 144.681 218.61 144.603 218.705 144.532C218.801 144.461 218.91 144.426 219.034 144.426H219.37C219.498 144.426 219.598 144.458 219.67 144.525C219.745 144.586 219.798 144.667 219.827 144.766L221.041 151.724C221.066 151.851 221.084 151.989 221.099 152.135C221.117 152.281 221.134 152.436 221.149 152.596C221.239 152.28 221.33 151.989 221.42 151.724L224.192 144.766C224.221 144.677 224.288 144.599 224.392 144.532C224.496 144.461 224.611 144.426 224.735 144.426H225.885Z" fill="white"/>
<path d="M227.821 148.901C228.193 148.372 228.603 147.972 229.05 147.702C229.497 147.433 229.954 147.298 230.422 147.298C230.732 147.298 231.003 147.359 231.236 147.483C231.475 147.6 231.668 147.776 231.815 148.007C231.962 148.239 232.062 148.525 232.115 148.866C232.172 149.202 232.175 149.586 232.122 150.022L231.579 154.61H230.186L230.729 150.022C230.796 149.478 230.762 149.078 230.629 148.823C230.5 148.568 230.257 148.44 229.9 148.44C229.69 148.44 229.476 148.497 229.257 148.61C229.043 148.724 228.831 148.884 228.621 149.092C228.417 149.295 228.224 149.546 228.043 149.844C227.867 150.138 227.714 150.464 227.586 150.823L227.121 154.61H225.728L227.007 144.142H228.4L227.821 148.901Z" fill="white"/>
<path d="M237.047 148.291C236.761 148.291 236.5 148.351 236.261 148.468C236.024 148.582 235.81 148.742 235.618 148.951C235.428 149.153 235.267 149.395 235.133 149.674C235 149.948 234.895 150.249 234.818 150.575C235.518 150.485 236.078 150.386 236.497 150.277C236.921 150.168 237.247 150.05 237.476 149.922C237.704 149.79 237.855 149.65 237.926 149.504C238.003 149.358 238.04 149.202 238.04 149.036C238.04 148.955 238.022 148.873 237.983 148.788C237.95 148.698 237.893 148.617 237.812 148.546C237.736 148.471 237.633 148.409 237.504 148.362C237.382 148.315 237.229 148.291 237.047 148.291ZM239.119 153.277C238.872 153.528 238.632 153.742 238.397 153.922C238.165 154.102 237.925 154.251 237.676 154.369C237.433 154.487 237.179 154.572 236.911 154.624C236.646 154.681 236.354 154.71 236.04 154.71C235.626 154.71 235.25 154.641 234.911 154.504C234.578 154.362 234.295 154.163 234.061 153.908C233.828 153.653 233.647 153.345 233.518 152.986C233.395 152.622 233.332 152.216 233.332 151.766C233.332 151.393 233.371 151.024 233.447 150.66C233.528 150.291 233.645 149.944 233.797 149.617C233.95 149.287 234.135 148.979 234.354 148.695C234.574 148.412 234.824 148.168 235.104 147.965C235.385 147.756 235.696 147.596 236.033 147.483C236.371 147.365 236.736 147.305 237.126 147.305C237.497 147.305 237.819 147.358 238.09 147.461C238.362 147.565 238.586 147.7 238.762 147.866C238.943 148.026 239.076 148.206 239.162 148.405C239.248 148.603 239.29 148.797 239.29 148.986C239.29 149.298 239.226 149.586 239.098 149.851C238.969 150.111 238.733 150.348 238.39 150.561C238.053 150.769 237.586 150.951 236.99 151.107C236.396 151.263 235.631 151.388 234.697 151.483C234.693 151.525 234.69 151.568 234.69 151.61C234.69 151.653 234.69 151.695 234.69 151.738C234.69 152.358 234.824 152.826 235.09 153.142C235.361 153.458 235.768 153.617 236.311 153.617C236.536 153.617 236.736 153.596 236.911 153.553C237.089 153.507 237.243 153.45 237.376 153.383C237.514 153.317 237.636 153.246 237.74 153.171C237.846 153.09 237.94 153.017 238.026 152.951C238.117 152.884 238.2 152.83 238.276 152.788C238.353 152.741 238.432 152.717 238.512 152.717C238.565 152.717 238.61 152.731 238.647 152.759C238.69 152.783 238.732 152.813 238.769 152.851L239.119 153.277Z" fill="white"/>
<path d="M242.141 149.348C242.331 148.955 242.537 148.617 242.755 148.334C242.974 148.046 243.203 147.82 243.441 147.66C243.68 147.494 243.924 147.395 244.177 147.362C244.434 147.324 244.691 147.362 244.949 147.475L244.699 148.809C244.084 148.563 243.546 148.646 243.084 149.057C242.623 149.468 242.248 150.23 241.962 151.341L241.562 154.61H240.198L241.077 147.39H241.777C241.93 147.39 242.045 147.429 242.127 147.504C242.208 147.579 242.248 147.698 242.248 147.858L242.141 149.348Z" fill="white"/>
<path d="M248.601 148.291C248.315 148.291 248.053 148.351 247.815 148.468C247.576 148.582 247.362 148.742 247.172 148.951C246.982 149.153 246.819 149.395 246.686 149.674C246.553 149.948 246.447 150.249 246.372 150.575C247.072 150.485 247.632 150.386 248.051 150.277C248.475 150.168 248.801 150.05 249.029 149.922C249.258 149.79 249.408 149.65 249.479 149.504C249.555 149.358 249.594 149.202 249.594 149.036C249.594 148.955 249.575 148.873 249.537 148.788C249.504 148.698 249.447 148.617 249.365 148.546C249.289 148.471 249.187 148.409 249.058 148.362C248.934 148.315 248.782 148.291 248.601 148.291ZM250.673 153.277C250.425 153.528 250.184 153.742 249.951 153.922C249.718 154.102 249.477 154.251 249.229 154.369C248.986 154.487 248.732 154.572 248.465 154.624C248.198 154.681 247.908 154.71 247.593 154.71C247.179 154.71 246.803 154.641 246.465 154.504C246.132 154.362 245.847 154.163 245.614 153.908C245.382 153.653 245.2 153.345 245.072 152.986C244.947 152.622 244.886 152.216 244.886 151.766C244.886 151.393 244.924 151.024 245 150.66C245.082 150.291 245.197 149.944 245.35 149.617C245.503 149.287 245.689 148.979 245.907 148.695C246.126 148.412 246.376 148.168 246.658 147.965C246.939 147.756 247.248 147.596 247.586 147.483C247.925 147.365 248.289 147.305 248.679 147.305C249.051 147.305 249.372 147.358 249.644 147.461C249.915 147.565 250.14 147.7 250.315 147.866C250.497 148.026 250.63 148.206 250.715 148.405C250.801 148.603 250.844 148.797 250.844 148.986C250.844 149.298 250.78 149.586 250.651 149.851C250.523 150.111 250.287 150.348 249.944 150.561C249.605 150.769 249.139 150.951 248.544 151.107C247.948 151.263 247.183 151.388 246.25 151.483C246.246 151.525 246.243 151.568 246.243 151.61C246.243 151.653 246.243 151.695 246.243 151.738C246.243 152.358 246.376 152.826 246.643 153.142C246.915 153.458 247.322 153.617 247.865 153.617C248.089 153.617 248.289 153.596 248.465 153.553C248.641 153.507 248.796 153.45 248.929 153.383C249.068 153.317 249.189 153.246 249.294 153.171C249.398 153.09 249.494 153.017 249.579 152.951C249.669 152.884 249.754 152.83 249.83 152.788C249.905 152.741 249.984 152.717 250.065 152.717C250.118 152.717 250.162 152.731 250.201 152.759C250.244 152.783 250.284 152.813 250.322 152.851L250.673 153.277Z" fill="white"/>
<path d="M258.824 149.688C259.214 149.688 259.56 149.629 259.86 149.511C260.16 149.388 260.41 149.22 260.61 149.007C260.814 148.795 260.967 148.542 261.067 148.249C261.172 147.955 261.224 147.634 261.224 147.284C261.224 146.759 261.067 146.344 260.753 146.036C260.443 145.724 259.968 145.568 259.331 145.568H257.895L257.388 149.688H258.824ZM259.474 144.426C260.026 144.426 260.504 144.492 260.91 144.624C261.314 144.756 261.647 144.944 261.91 145.185C262.176 145.422 262.375 145.707 262.503 146.043C262.632 146.373 262.696 146.742 262.696 147.149C262.696 147.688 262.608 148.185 262.432 148.639C262.26 149.088 262.003 149.475 261.66 149.802C261.322 150.128 260.903 150.383 260.403 150.568C259.903 150.752 259.328 150.844 258.681 150.844H257.245L256.781 154.61H255.323L256.574 144.426H259.474Z" fill="white"/>
<path d="M265.667 153.631C266.001 153.631 266.302 153.542 266.574 153.362C266.851 153.178 267.084 152.932 267.274 152.624C267.47 152.317 267.62 151.962 267.724 151.561C267.83 151.159 267.881 150.738 267.881 150.298C267.881 149.65 267.758 149.168 267.51 148.851C267.263 148.535 266.901 148.376 266.424 148.376C266.087 148.376 265.781 148.468 265.509 148.653C265.238 148.833 265.005 149.075 264.809 149.383C264.619 149.685 264.472 150.039 264.366 150.44C264.262 150.841 264.209 151.263 264.209 151.702C264.209 152.341 264.334 152.823 264.581 153.149C264.829 153.471 265.191 153.631 265.667 153.631ZM265.538 154.71C265.144 154.71 264.779 154.643 264.445 154.511C264.112 154.373 263.823 154.178 263.581 153.922C263.343 153.667 263.155 153.355 263.016 152.986C262.883 152.613 262.816 152.188 262.816 151.71C262.816 151.1 262.912 150.528 263.102 149.993C263.298 149.454 263.562 148.986 263.895 148.589C264.234 148.187 264.629 147.873 265.081 147.646C265.538 147.414 266.03 147.298 266.553 147.298C266.948 147.298 267.313 147.366 267.646 147.504C267.98 147.636 268.266 147.83 268.503 148.085C268.746 148.341 268.934 148.656 269.067 149.029C269.206 149.397 269.274 149.819 269.274 150.291C269.274 150.897 269.177 151.468 268.982 152.007C268.792 152.542 268.527 153.01 268.189 153.412C267.856 153.813 267.46 154.131 267.003 154.362C266.551 154.593 266.062 154.71 265.538 154.71Z" fill="white"/>
<path d="M270.686 153.22C270.686 153.192 270.686 153.156 270.686 153.114C270.686 153.067 270.688 153 270.693 152.915C270.702 152.83 270.715 152.717 270.729 152.575C270.748 152.433 270.772 152.251 270.8 152.029L271.236 148.525H270.458C270.386 148.525 270.326 148.501 270.279 148.454C270.236 148.402 270.222 148.327 270.236 148.227L270.3 147.667L271.408 147.504L271.965 145.355C271.988 145.274 272.026 145.213 272.079 145.17C272.136 145.124 272.205 145.1 272.286 145.1H273.029L272.722 147.518H274.587L274.473 148.525H272.601L272.172 151.958C272.148 152.152 272.129 152.308 272.115 152.426C272.101 152.544 272.088 152.639 272.079 152.71C272.074 152.776 272.069 152.823 272.065 152.851C272.065 152.88 272.065 152.901 272.065 152.915C272.065 153.138 272.119 153.305 272.229 153.419C272.338 153.532 272.484 153.589 272.665 153.589C272.784 153.589 272.887 153.572 272.972 153.539C273.062 153.507 273.141 153.471 273.208 153.433C273.274 153.39 273.33 153.352 273.372 153.319C273.42 153.287 273.462 153.27 273.501 153.27C273.544 153.27 273.577 153.281 273.601 153.305C273.624 153.324 273.648 153.358 273.672 153.405L273.965 154.071C273.722 154.28 273.451 154.44 273.151 154.553C272.851 154.667 272.548 154.724 272.244 154.724C271.766 154.724 271.391 154.596 271.115 154.341C270.838 154.081 270.695 153.707 270.686 153.22Z" fill="white"/>
<path d="M278.768 148.291C278.482 148.291 278.22 148.351 277.982 148.468C277.745 148.582 277.53 148.742 277.339 148.951C277.149 149.153 276.987 149.395 276.853 149.674C276.72 149.948 276.616 150.249 276.539 150.575C277.239 150.485 277.799 150.386 278.218 150.277C278.642 150.168 278.968 150.05 279.196 149.922C279.425 149.79 279.575 149.65 279.646 149.504C279.724 149.358 279.761 149.202 279.761 149.036C279.761 148.955 279.742 148.873 279.703 148.788C279.671 148.698 279.613 148.617 279.532 148.546C279.456 148.471 279.353 148.409 279.225 148.362C279.102 148.315 278.949 148.291 278.768 148.291ZM280.839 153.277C280.592 153.528 280.352 153.742 280.118 153.922C279.885 154.102 279.645 154.251 279.396 154.369C279.153 154.487 278.899 154.572 278.632 154.624C278.366 154.681 278.075 154.71 277.76 154.71C277.346 154.71 276.97 154.641 276.631 154.504C276.299 154.362 276.016 154.163 275.781 153.908C275.548 153.653 275.367 153.345 275.238 152.986C275.116 152.622 275.053 152.216 275.053 151.766C275.053 151.393 275.091 151.024 275.167 150.66C275.248 150.291 275.366 149.944 275.517 149.617C275.67 149.287 275.856 148.979 276.074 148.695C276.294 148.412 276.544 148.168 276.824 147.965C277.106 147.756 277.416 147.596 277.753 147.483C278.092 147.365 278.456 147.305 278.846 147.305C279.218 147.305 279.539 147.358 279.811 147.461C280.082 147.565 280.306 147.7 280.482 147.866C280.664 148.026 280.797 148.206 280.882 148.405C280.968 148.603 281.011 148.797 281.011 148.986C281.011 149.298 280.947 149.586 280.818 149.851C280.689 150.111 280.454 150.348 280.111 150.561C279.774 150.769 279.306 150.951 278.71 151.107C278.116 151.263 277.352 151.388 276.417 151.483C276.413 151.525 276.41 151.568 276.41 151.61C276.41 151.653 276.41 151.695 276.41 151.738C276.41 152.358 276.544 152.826 276.81 153.142C277.082 153.458 277.489 153.617 278.032 153.617C278.256 153.617 278.456 153.596 278.632 153.553C278.809 153.507 278.963 153.45 279.096 153.383C279.235 153.317 279.356 153.246 279.461 153.171C279.566 153.09 279.661 153.017 279.746 152.951C279.838 152.884 279.921 152.83 279.996 152.788C280.074 152.741 280.152 152.717 280.232 152.717C280.285 152.717 280.331 152.731 280.368 152.759C280.411 152.783 280.452 152.813 280.489 152.851L280.839 153.277Z" fill="white"/>
<path d="M283.869 149.128C284.254 148.522 284.686 148.067 285.162 147.759C285.637 147.451 286.129 147.298 286.633 147.298C286.938 147.298 287.208 147.359 287.441 147.483C287.679 147.6 287.872 147.776 288.019 148.007C288.166 148.239 288.266 148.525 288.319 148.866C288.377 149.202 288.377 149.586 288.319 150.022L287.776 154.61H286.383L286.933 150.022C287.001 149.478 286.966 149.081 286.833 148.83C286.705 148.575 286.465 148.447 286.112 148.447C285.893 148.447 285.669 148.508 285.44 148.632C285.212 148.749 284.99 148.919 284.776 149.142C284.566 149.359 284.369 149.624 284.183 149.936C284.001 150.249 283.85 150.596 283.726 150.979L283.318 154.61H281.925L282.79 147.39H283.49C283.643 147.39 283.758 147.429 283.84 147.504C283.921 147.579 283.961 147.698 283.961 147.858L283.869 149.128Z" fill="white"/>
<path d="M296.569 148.504H296.562L295.812 154.61H294.462L295.219 148.504H291.919L291.49 151.958C291.466 152.152 291.447 152.308 291.433 152.426C291.418 152.544 291.407 152.639 291.397 152.71C291.393 152.776 291.39 152.823 291.39 152.851C291.39 152.88 291.39 152.901 291.39 152.915C291.39 153.138 291.443 153.305 291.547 153.419C291.657 153.532 291.804 153.589 291.99 153.589C292.109 153.589 292.211 153.572 292.297 153.539C292.387 153.507 292.464 153.471 292.526 153.433C292.593 153.39 292.647 153.352 292.69 153.319C292.737 153.287 292.78 153.27 292.819 153.27C292.866 153.27 292.9 153.281 292.919 153.305C292.943 153.324 292.966 153.358 292.99 153.405L293.29 154.071C293.047 154.28 292.776 154.44 292.476 154.553C292.176 154.667 291.871 154.724 291.561 154.724C291.086 154.724 290.708 154.596 290.433 154.341C290.161 154.081 290.018 153.707 290.004 153.22C290.004 153.192 290.004 153.156 290.004 153.114C290.008 153.067 290.014 153 290.018 152.915C290.028 152.83 290.04 152.717 290.054 152.575C290.068 152.433 290.09 152.251 290.118 152.029L290.554 148.504H289.804C289.728 148.504 289.665 148.48 289.618 148.433C289.571 148.38 289.551 148.308 289.561 148.213L289.632 147.681L290.725 147.518L291.283 145.355C291.307 145.274 291.347 145.213 291.404 145.17C291.461 145.124 291.53 145.1 291.611 145.1H292.347L292.04 147.532H296.684L296.569 148.504ZM297.305 145.178C297.305 145.305 297.277 145.429 297.22 145.546C297.167 145.66 297.095 145.762 297.005 145.851C296.919 145.936 296.819 146.005 296.705 146.057C296.591 146.104 296.474 146.128 296.355 146.128C296.237 146.128 296.122 146.104 296.012 146.057C295.902 146.005 295.805 145.936 295.719 145.851C295.638 145.762 295.572 145.66 295.519 145.546C295.472 145.429 295.448 145.305 295.448 145.178C295.448 145.05 295.472 144.929 295.519 144.816C295.572 144.698 295.641 144.596 295.726 144.511C295.812 144.422 295.909 144.351 296.019 144.298C296.129 144.246 296.244 144.22 296.362 144.22C296.481 144.22 296.598 144.246 296.712 144.298C296.827 144.345 296.927 144.414 297.012 144.504C297.102 144.589 297.174 144.691 297.227 144.809C297.28 144.922 297.305 145.046 297.305 145.178Z" fill="white"/>
<path d="M302.651 148.348C302.465 148.319 302.28 148.305 302.1 148.305C301.676 148.305 301.279 148.405 300.907 148.603C300.536 148.797 300.211 149.06 299.936 149.39C299.664 149.721 299.447 150.107 299.286 150.546C299.128 150.982 299.05 151.437 299.05 151.915C299.05 152.468 299.14 152.883 299.321 153.156C299.501 153.426 299.764 153.561 300.107 153.561C300.33 153.561 300.55 153.49 300.764 153.348C300.983 153.202 301.187 153.003 301.379 152.752C301.573 152.497 301.752 152.196 301.915 151.851C302.08 151.507 302.226 151.131 302.35 150.724L302.651 148.348ZM302.165 152.809C301.998 153.097 301.816 153.359 301.622 153.596C301.43 153.827 301.226 154.026 301.007 154.192C300.793 154.358 300.564 154.485 300.322 154.575C300.083 154.664 299.836 154.71 299.579 154.71C299.293 154.71 299.03 154.656 298.793 154.546C298.558 154.433 298.357 154.27 298.185 154.057C298.018 153.84 297.887 153.572 297.793 153.256C297.701 152.939 297.657 152.575 297.657 152.163C297.657 151.738 297.708 151.322 297.814 150.915C297.923 150.504 298.078 150.118 298.278 149.759C298.478 149.4 298.716 149.068 298.993 148.766C299.273 148.464 299.586 148.203 299.929 147.986C300.272 147.769 300.64 147.6 301.036 147.483C301.436 147.359 301.852 147.298 302.286 147.298C302.601 147.298 302.908 147.324 303.208 147.376C303.512 147.423 303.812 147.508 304.108 147.631L303.236 154.61H302.508C302.326 154.61 302.205 154.565 302.143 154.475C302.08 154.38 302.05 154.267 302.05 154.135L302.165 152.809Z" fill="white"/>
<path d="M305.09 154.61L306.368 144.142H307.74L306.461 154.61H305.09Z" fill="white"/>
<path d="M323.141 144.426L321.877 154.61H320.598L321.505 147.319C321.52 147.216 321.54 147.102 321.562 146.979C321.587 146.856 321.613 146.731 321.641 146.603L317.755 152.851C317.622 153.074 317.433 153.185 317.19 153.185H316.99C316.743 153.185 316.579 153.074 316.497 152.851L314.118 146.603C314.114 146.727 314.107 146.848 314.097 146.972C314.093 147.09 314.085 147.199 314.075 147.298L313.175 154.61H311.889L313.147 144.426H314.233C314.361 144.426 314.457 144.44 314.518 144.468C314.581 144.497 314.646 144.563 314.711 144.667L317.105 150.915C317.143 151.014 317.176 151.117 317.205 151.22C317.233 151.324 317.26 151.43 317.283 151.539C317.332 151.43 317.382 151.324 317.433 151.22C317.486 151.117 317.543 151.014 317.605 150.915L321.52 144.667C321.568 144.614 321.608 144.575 321.641 144.546C321.68 144.514 321.718 144.487 321.755 144.468C321.794 144.45 321.834 144.437 321.877 144.433C321.925 144.429 321.983 144.426 322.048 144.426H323.141Z" fill="white"/>
<path d="M327.508 148.291C327.222 148.291 326.959 148.351 326.722 148.468C326.483 148.582 326.269 148.742 326.079 148.951C325.888 149.153 325.726 149.395 325.593 149.674C325.459 149.948 325.355 150.249 325.279 150.575C325.979 150.485 326.538 150.386 326.958 150.277C327.381 150.168 327.708 150.05 327.937 149.922C328.165 149.79 328.315 149.65 328.387 149.504C328.462 149.358 328.501 149.202 328.501 149.036C328.501 148.955 328.481 148.873 328.444 148.788C328.409 148.698 328.352 148.617 328.272 148.546C328.195 148.471 328.094 148.409 327.965 148.362C327.841 148.315 327.688 148.291 327.508 148.291ZM329.58 153.277C329.331 153.528 329.091 153.742 328.858 153.922C328.624 154.102 328.384 154.251 328.137 154.369C327.894 154.487 327.638 154.572 327.372 154.624C327.105 154.681 326.815 154.71 326.501 154.71C326.086 154.71 325.709 154.641 325.372 154.504C325.037 154.362 324.755 154.163 324.522 153.908C324.287 153.653 324.107 153.345 323.979 152.986C323.854 152.622 323.793 152.216 323.793 151.766C323.793 151.393 323.83 151.024 323.907 150.66C323.987 150.291 324.104 149.944 324.257 149.617C324.409 149.287 324.595 148.979 324.815 148.695C325.033 148.412 325.283 148.168 325.565 147.965C325.845 147.756 326.155 147.596 326.493 147.483C326.831 147.365 327.195 147.305 327.586 147.305C327.958 147.305 328.279 147.358 328.551 147.461C328.822 147.565 329.045 147.7 329.222 147.866C329.402 148.026 329.537 148.206 329.623 148.405C329.708 148.603 329.751 148.797 329.751 148.986C329.751 149.298 329.687 149.586 329.558 149.851C329.43 150.111 329.194 150.348 328.851 150.561C328.512 150.769 328.045 150.951 327.451 151.107C326.855 151.263 326.09 151.388 325.157 151.483C325.152 151.525 325.15 151.568 325.15 151.61C325.15 151.653 325.15 151.695 325.15 151.738C325.15 152.358 325.283 152.826 325.55 153.142C325.822 153.458 326.229 153.617 326.772 153.617C326.995 153.617 327.195 153.596 327.372 153.553C327.548 153.507 327.702 153.45 327.836 153.383C327.974 153.317 328.095 153.246 328.201 153.171C328.305 153.09 328.401 153.017 328.487 152.951C328.577 152.884 328.66 152.83 328.737 152.788C328.812 152.741 328.891 152.717 328.972 152.717C329.024 152.717 329.07 152.731 329.108 152.759C329.151 152.783 329.191 152.813 329.23 152.851L329.58 153.277Z" fill="white"/>
<path d="M334.345 148.291C334.059 148.291 333.798 148.351 333.559 148.468C333.32 148.582 333.106 148.742 332.916 148.951C332.726 149.153 332.563 149.395 332.43 149.674C332.297 149.948 332.192 150.249 332.116 150.575C332.816 150.485 333.376 150.386 333.795 150.277C334.219 150.168 334.545 150.05 334.773 149.922C335.002 149.79 335.152 149.65 335.224 149.504C335.299 149.358 335.338 149.202 335.338 149.036C335.338 148.955 335.319 148.873 335.281 148.788C335.248 148.698 335.191 148.617 335.109 148.546C335.034 148.471 334.931 148.409 334.802 148.362C334.678 148.315 334.526 148.291 334.345 148.291ZM336.417 153.277C336.169 153.528 335.928 153.742 335.695 153.922C335.462 154.102 335.221 154.251 334.973 154.369C334.731 154.487 334.476 154.572 334.209 154.624C333.942 154.681 333.652 154.71 333.338 154.71C332.923 154.71 332.547 154.641 332.209 154.504C331.876 154.362 331.591 154.163 331.359 153.908C331.126 153.653 330.944 153.345 330.816 152.986C330.691 152.622 330.63 152.216 330.63 151.766C330.63 151.393 330.668 151.024 330.744 150.66C330.826 150.291 330.941 149.944 331.094 149.617C331.247 149.287 331.433 148.979 331.651 148.695C331.87 148.412 332.12 148.168 332.402 147.965C332.683 147.756 332.992 147.596 333.33 147.483C333.669 147.365 334.033 147.305 334.423 147.305C334.795 147.305 335.116 147.358 335.388 147.461C335.659 147.565 335.884 147.7 336.059 147.866C336.241 148.026 336.374 148.206 336.46 148.405C336.545 148.603 336.588 148.797 336.588 148.986C336.588 149.298 336.524 149.586 336.395 149.851C336.267 150.111 336.031 150.348 335.688 150.561C335.349 150.769 334.883 150.951 334.288 151.107C333.692 151.263 332.927 151.388 331.994 151.483C331.99 151.525 331.987 151.568 331.987 151.61C331.987 151.653 331.987 151.695 331.987 151.738C331.987 152.358 332.12 152.826 332.387 153.142C332.659 153.458 333.066 153.617 333.609 153.617C333.833 153.617 334.033 153.596 334.209 153.553C334.385 153.507 334.541 153.45 334.673 153.383C334.812 153.317 334.934 153.246 335.038 153.171C335.142 153.09 335.238 153.017 335.324 152.951C335.414 152.884 335.498 152.83 335.574 152.788C335.649 152.741 335.728 152.717 335.809 152.717C335.862 152.717 335.907 152.731 335.945 152.759C335.988 152.783 336.028 152.813 336.067 152.851L336.417 153.277Z" fill="white"/>
<path d="M338.026 153.22C338.026 153.192 338.026 153.156 338.026 153.114C338.026 153.067 338.027 153 338.033 152.915C338.041 152.83 338.054 152.717 338.068 152.575C338.087 152.433 338.111 152.251 338.14 152.029L338.576 148.525H337.797C337.725 148.525 337.665 148.501 337.618 148.454C337.575 148.402 337.561 148.327 337.575 148.227L337.64 147.667L338.747 147.504L339.304 145.355C339.327 145.274 339.366 145.213 339.419 145.17C339.476 145.124 339.544 145.1 339.626 145.1H340.369L340.062 147.518H341.926L341.812 148.525H339.94L339.512 151.958C339.487 152.152 339.469 152.308 339.454 152.426C339.44 152.544 339.427 152.639 339.419 152.71C339.413 152.776 339.409 152.823 339.404 152.851C339.404 152.88 339.404 152.901 339.404 152.915C339.404 153.138 339.459 153.305 339.569 153.419C339.677 153.532 339.823 153.589 340.004 153.589C340.123 153.589 340.226 153.572 340.312 153.539C340.402 153.507 340.48 153.471 340.547 153.433C340.613 153.39 340.669 153.352 340.712 153.319C340.759 153.287 340.802 153.27 340.84 153.27C340.883 153.27 340.916 153.281 340.94 153.305C340.963 153.324 340.987 153.358 341.012 153.405L341.305 154.071C341.062 154.28 340.79 154.44 340.49 154.553C340.19 154.667 339.887 154.724 339.583 154.724C339.106 154.724 338.73 154.596 338.454 154.341C338.177 154.081 338.034 153.707 338.026 153.22Z" fill="white"/>
<path d="M347.269 148.61C347.226 148.671 347.183 148.717 347.14 148.745C347.101 148.769 347.051 148.78 346.99 148.78C346.919 148.78 346.841 148.755 346.761 148.702C346.684 148.65 346.59 148.593 346.476 148.532C346.366 148.471 346.233 148.414 346.076 148.362C345.918 148.31 345.727 148.284 345.504 148.284C345.294 148.284 345.105 148.312 344.94 148.369C344.772 148.426 344.627 148.504 344.504 148.603C344.384 148.698 344.291 148.812 344.225 148.944C344.162 149.075 344.132 149.216 344.132 149.362C344.132 149.522 344.175 149.657 344.261 149.766C344.347 149.875 344.458 149.972 344.597 150.057C344.734 150.138 344.891 150.21 345.068 150.277C345.248 150.344 345.433 150.414 345.618 150.49C345.804 150.561 345.984 150.641 346.161 150.731C346.341 150.82 346.501 150.932 346.64 151.064C346.777 151.192 346.89 151.348 346.976 151.532C347.061 151.717 347.104 151.936 347.104 152.192C347.104 152.528 347.037 152.849 346.904 153.156C346.77 153.458 346.577 153.728 346.326 153.965C346.077 154.196 345.777 154.38 345.425 154.518C345.072 154.656 344.677 154.724 344.239 154.724C343.777 154.724 343.365 154.641 343.004 154.475C342.641 154.31 342.348 154.1 342.125 153.844L342.468 153.312C342.558 153.175 342.679 153.107 342.832 153.107C342.912 153.107 342.991 153.139 343.068 153.206C343.148 153.273 343.246 153.345 343.361 153.426C343.475 153.501 343.615 153.572 343.782 153.639C343.948 153.705 344.162 153.738 344.425 153.738C344.648 153.738 344.848 153.705 345.025 153.639C345.205 153.572 345.358 153.485 345.483 153.376C345.605 153.263 345.698 153.132 345.761 152.986C345.827 152.84 345.861 152.684 345.861 152.518C345.861 152.344 345.818 152.196 345.733 152.078C345.647 151.955 345.534 151.854 345.397 151.773C345.258 151.688 345.098 151.614 344.918 151.553C344.741 151.487 344.561 151.422 344.375 151.355C344.194 151.284 344.012 151.209 343.832 151.128C343.655 151.043 343.498 150.936 343.361 150.809C343.222 150.681 343.111 150.528 343.025 150.348C342.939 150.163 342.896 149.941 342.896 149.681C342.896 149.373 342.958 149.078 343.082 148.795C343.205 148.507 343.382 148.251 343.611 148.029C343.844 147.806 344.125 147.629 344.454 147.497C344.787 147.365 345.163 147.298 345.583 147.298C346.03 147.298 346.42 147.372 346.754 147.518C347.091 147.66 347.383 147.856 347.626 148.107L347.269 148.61Z" fill="white"/>
<path d="M353.324 154.61H351.852L353.103 144.426H354.581L353.324 154.61Z" fill="white"/>
<path d="M355.341 154.61L356.22 147.39H356.92C357.072 147.39 357.189 147.429 357.27 147.504C357.35 147.579 357.392 147.698 357.392 147.858L357.306 149.014C357.653 148.447 358.035 148.019 358.449 147.731C358.864 147.443 359.302 147.298 359.764 147.298C360.24 147.298 360.597 147.458 360.835 147.78C361.078 148.102 361.204 148.568 361.214 149.178C361.571 148.535 361.968 148.061 362.407 147.759C362.85 147.451 363.321 147.298 363.822 147.298C364.445 147.298 364.89 147.532 365.158 148C365.423 148.468 365.503 149.142 365.393 150.022L364.85 154.61H363.479L364.022 150.022C364.087 149.483 364.072 149.085 363.972 148.83C363.872 148.575 363.654 148.447 363.321 148.447C363.121 148.447 362.923 148.497 362.729 148.596C362.533 148.695 362.344 148.844 362.164 149.043C361.983 149.237 361.814 149.475 361.657 149.759C361.5 150.043 361.361 150.369 361.243 150.738L360.778 154.61H359.406L359.949 150.022C359.982 149.752 359.997 149.518 359.992 149.319C359.992 149.121 359.965 148.958 359.914 148.83C359.865 148.702 359.789 148.607 359.685 148.546C359.585 148.48 359.451 148.447 359.285 148.447C359.065 148.447 358.854 148.504 358.649 148.617C358.449 148.727 358.258 148.884 358.078 149.092C357.901 149.301 357.735 149.553 357.578 149.851C357.425 150.145 357.286 150.478 357.163 150.851L356.706 154.61H355.341Z" fill="white"/>
<path d="M368.16 153C368.335 153.231 368.545 153.397 368.788 153.497C369.031 153.592 369.274 153.639 369.517 153.639C369.754 153.639 369.978 153.589 370.188 153.49C370.403 153.39 370.596 153.256 370.767 153.085C370.943 152.911 371.1 152.707 371.239 152.475C371.376 152.244 371.493 151.997 371.589 151.738C371.683 151.473 371.754 151.199 371.803 150.915C371.854 150.631 371.882 150.351 371.882 150.071C371.882 149.522 371.783 149.11 371.589 148.83C371.393 148.546 371.117 148.405 370.76 148.405C370.54 148.405 370.317 148.475 370.088 148.617C369.864 148.755 369.647 148.946 369.438 149.192C369.233 149.433 369.04 149.721 368.86 150.057C368.678 150.393 368.521 150.759 368.388 151.156L368.16 153ZM368.552 149.249C368.732 148.951 368.928 148.684 369.138 148.447C369.347 148.206 369.567 148 369.796 147.83C370.028 147.66 370.271 147.529 370.524 147.44C370.776 147.345 371.033 147.298 371.296 147.298C371.904 147.298 372.383 147.521 372.732 147.965C373.083 148.409 373.26 149.067 373.26 149.936C373.26 150.329 373.218 150.721 373.132 151.114C373.05 151.501 372.933 151.873 372.782 152.227C372.633 152.582 372.453 152.911 372.239 153.213C372.024 153.515 371.786 153.778 371.524 154C371.261 154.223 370.979 154.397 370.674 154.525C370.374 154.649 370.057 154.71 369.724 154.71C369.375 154.71 369.06 154.643 368.774 154.511C368.488 154.373 368.242 154.185 368.038 153.944L367.659 157.029H366.302L367.481 147.39H368.181C368.332 147.39 368.45 147.429 368.531 147.504C368.611 147.579 368.652 147.698 368.652 147.858L368.552 149.249Z" fill="white"/>
<path d="M379.129 148.348C378.943 148.319 378.76 148.305 378.579 148.305C378.156 148.305 377.757 148.405 377.385 148.603C377.014 148.797 376.691 149.06 376.414 149.39C376.142 149.721 375.927 150.107 375.764 150.546C375.607 150.982 375.528 151.437 375.528 151.915C375.528 152.468 375.619 152.883 375.799 153.156C375.981 153.426 376.242 153.561 376.585 153.561C376.81 153.561 377.028 153.49 377.243 153.348C377.463 153.202 377.667 153.003 377.857 152.752C378.053 152.497 378.231 152.196 378.393 151.851C378.56 151.507 378.706 151.131 378.829 150.724L379.129 148.348ZM378.643 152.809C378.477 153.097 378.296 153.359 378.1 153.596C377.91 153.827 377.706 154.026 377.485 154.192C377.271 154.358 377.043 154.485 376.8 154.575C376.562 154.664 376.314 154.71 376.057 154.71C375.771 154.71 375.509 154.656 375.271 154.546C375.038 154.433 374.835 154.27 374.664 154.057C374.498 153.84 374.366 153.572 374.271 153.256C374.181 152.939 374.135 152.575 374.135 152.163C374.135 151.738 374.188 151.322 374.292 150.915C374.402 150.504 374.556 150.118 374.756 149.759C374.956 149.4 375.195 149.068 375.471 148.766C375.752 148.464 376.064 148.203 376.407 147.986C376.75 147.769 377.12 147.6 377.514 147.483C377.914 147.359 378.331 147.298 378.764 147.298C379.079 147.298 379.386 147.324 379.686 147.376C379.992 147.423 380.292 147.508 380.586 147.631L379.714 154.61H378.986C378.806 154.61 378.684 154.565 378.621 154.475C378.56 154.38 378.529 154.267 378.529 154.135L378.643 152.809Z" fill="white"/>
<path d="M387.012 153.319C386.769 153.589 386.536 153.813 386.311 153.993C386.087 154.173 385.861 154.317 385.633 154.426C385.408 154.529 385.175 154.603 384.933 154.646C384.694 154.688 384.432 154.71 384.147 154.71C383.728 154.71 383.354 154.639 383.025 154.497C382.701 154.355 382.428 154.153 382.203 153.894C381.985 153.634 381.818 153.322 381.703 152.958C381.589 152.593 381.532 152.189 381.532 151.745C381.532 151.358 381.572 150.979 381.653 150.61C381.739 150.237 381.861 149.887 382.018 149.561C382.175 149.23 382.365 148.927 382.589 148.653C382.814 148.373 383.064 148.135 383.339 147.936C383.615 147.734 383.915 147.578 384.24 147.468C384.568 147.355 384.915 147.298 385.283 147.298C385.764 147.298 386.166 147.383 386.49 147.553C386.819 147.724 387.107 147.972 387.354 148.298L386.919 148.823C386.88 148.861 386.837 148.894 386.79 148.922C386.747 148.951 386.7 148.965 386.647 148.965C386.58 148.965 386.514 148.936 386.447 148.88C386.38 148.823 386.297 148.762 386.197 148.695C386.097 148.624 385.971 148.561 385.818 148.504C385.671 148.447 385.48 148.419 385.247 148.419C384.933 148.419 384.635 148.504 384.354 148.674C384.072 148.84 383.828 149.071 383.618 149.369C383.408 149.667 383.242 150.019 383.118 150.426C382.994 150.833 382.932 151.274 382.932 151.752C382.932 152.036 382.965 152.294 383.032 152.525C383.099 152.756 383.194 152.953 383.318 153.114C383.447 153.274 383.604 153.4 383.79 153.49C383.98 153.575 384.197 153.617 384.44 153.617C384.644 153.617 384.825 153.596 384.983 153.553C385.144 153.511 385.285 153.458 385.404 153.397C385.528 153.336 385.637 153.267 385.733 153.192C385.828 153.117 385.914 153.047 385.99 152.986C386.066 152.925 386.137 152.873 386.204 152.83C386.271 152.788 386.337 152.766 386.404 152.766C386.5 152.766 386.586 152.809 386.661 152.894L387.012 153.319Z" fill="white"/>
<path d="M388.606 153.22C388.606 153.192 388.606 153.156 388.606 153.114C388.606 153.067 388.609 153 388.613 152.915C388.623 152.83 388.635 152.717 388.649 152.575C388.668 152.433 388.692 152.251 388.72 152.029L389.156 148.525H388.377C388.306 148.525 388.246 148.501 388.199 148.454C388.156 148.402 388.142 148.327 388.156 148.227L388.22 147.667L389.328 147.504L389.885 145.355C389.909 145.274 389.946 145.213 389.999 145.17C390.056 145.124 390.125 145.1 390.206 145.1H390.949L390.642 147.518H392.507L392.392 148.525H390.521L390.092 151.958C390.068 152.152 390.049 152.308 390.035 152.426C390.021 152.544 390.009 152.639 389.999 152.71C389.995 152.776 389.989 152.823 389.985 152.851C389.985 152.88 389.985 152.901 389.985 152.915C389.985 153.138 390.039 153.305 390.149 153.419C390.259 153.532 390.403 153.589 390.585 153.589C390.704 153.589 390.806 153.572 390.892 153.539C390.982 153.507 391.061 153.471 391.128 153.433C391.195 153.39 391.249 153.352 391.292 153.319C391.339 153.287 391.382 153.27 391.421 153.27C391.464 153.27 391.497 153.281 391.521 153.305C391.545 153.324 391.568 153.358 391.592 153.405L391.885 154.071C391.642 154.28 391.371 154.44 391.071 154.553C390.771 154.667 390.468 154.724 390.163 154.724C389.688 154.724 389.31 154.596 389.035 154.341C388.759 154.081 388.616 153.707 388.606 153.22Z" fill="white"/>
<path d="M385.285 139.007L359.824 97.5179C358.752 98.9647 357.573 101.007 356.287 103.646C355.001 106.241 354.144 109.05 353.715 112.071C353.244 115.05 353.737 117.858 355.194 120.497L365.61 139.007H385.285Z" fill="white"/>
<path d="M327.932 139.007L383.871 46.1987H363.553L347.736 76.7094L346.45 80.6668L345.421 76.7094L329.604 46.1987H309.415L337.32 92.0286L308 139.007H327.932Z" fill="white"/>
</g>
<defs>
<clipPath id="clip0_40_356">
<rect width="505" height="200" fill="white"/>
</clipPath>
</defs>
</svg>
