<svg width="480" height="200" viewBox="0 0 480 200" fill="none" xmlns="http://www.w3.org/2000/svg">
<g clip-path="url(#clip0_40_139)">
<path d="M100.618 3.29528C99.546 1.44495 99.0102 0.519784 98.3084 0.206734C97.6963 -0.0663619 96.9964 -0.0689979 96.3822 0.199481C95.678 0.507218 95.1352 1.42834 94.0495 3.27056L79.8943 27.288C78.892 28.9891 78.3908 29.8395 78.1417 30.7643C77.924 31.5724 77.8511 32.4463 77.9318 33.2792C78.0244 34.2321 78.3696 35.1313 79.06 36.9303C94.8577 78.0894 118.418 120.085 169.718 134.911C172.215 135.633 173.464 135.993 174.269 135.627C174.945 135.318 175.469 134.654 175.609 133.926C175.776 133.063 175.11 131.911 173.776 129.609L100.618 3.29528Z" fill="#00743F"/>
<path d="M24.5862 136.271C21.8938 137.289 20.5476 137.798 19.6946 137.465C18.9761 137.185 18.4062 136.52 18.2417 135.769C18.0463 134.879 18.7798 133.609 20.2471 131.071L66.8011 50.5195C67.8417 48.7187 68.3621 47.8185 69.1109 47.5109C69.7302 47.2568 70.5316 47.2943 71.1243 47.6052C71.8406 47.9812 72.2475 48.8686 73.0611 50.6438C86.4478 79.8504 74.9201 117.251 24.5862 136.271Z" fill="#F39F03"/>
<path d="M2.25106 163.199C0.722759 165.074 -0.0413908 166.012 0.00172817 166.912C0.0368035 167.644 0.501988 168.427 1.12957 168.812C1.90107 169.284 3.20574 169.05 5.81507 168.585C23.6596 165.399 66.9141 158.285 97.3496 158.285C127.789 158.285 171.05 165.399 188.894 168.585C191.262 169.007 192.445 169.219 193.229 168.718C193.849 168.321 194.319 167.467 194.321 166.735C194.322 165.807 193.591 165.019 192.125 163.441C185.841 156.681 177.401 152.156 169.294 147.656C110.886 115.229 78.7593 113.114 12.3104 154.742C7.82262 157.553 4.86665 159.989 2.25106 163.199Z" fill="#192E5B"/>
<path d="M75.7188 176.833C74.2929 175.146 73.5802 174.304 73.5455 173.5C73.5163 172.815 73.8109 172.112 74.3209 171.651C74.9197 171.11 76.0002 171.023 78.1614 170.849C82.7493 170.478 89.2313 170.097 96.4162 170.097C103.601 170.097 110.083 170.478 114.67 170.849C116.831 171.023 117.912 171.11 118.51 171.651C119.02 172.112 119.315 172.815 119.286 173.5C119.251 174.304 118.538 175.146 117.112 176.833L99.3224 197.87C98.3231 199.051 97.8236 199.643 97.2265 199.859C96.7027 200.047 96.1285 200.047 95.6049 199.859C95.0078 199.643 94.5083 199.051 93.5089 197.87L75.7188 176.833Z" fill="#F39F03"/>
<path d="M219 146.405L252.359 53.6585H267.859L301.218 146.405H284.634L260.524 75.1548L259.567 70.8173L258.482 75.3462L246.3 111.45L244.833 114.001L246.619 113.746H259.184C261.523 113.746 263.458 114.342 264.988 115.532C266.562 116.723 267.837 118.233 268.815 120.061C269.836 121.847 270.644 123.612 271.239 125.355H241.835L234.691 146.405H219Z" fill="#00743F"/>
<path d="M391.086 146.405V53.6585H406.458V146.405H391.086Z" fill="#F39F03"/>
<path d="M448.363 148C444.749 148 440.518 147.532 435.67 146.597C430.822 145.661 425.762 143.96 420.489 141.494L424.763 131.033C429.058 132.989 433.182 134.371 437.137 135.179C441.134 135.987 444.706 136.391 447.853 136.391C452.955 136.391 457.059 135.072 460.163 132.436C463.267 129.799 464.819 126.631 464.819 122.932C464.819 119.615 463.778 116.787 461.694 114.448C459.61 112.109 456.931 110.004 453.657 108.133C450.383 106.262 446.896 104.391 443.197 102.52C439.54 100.649 436.074 98.5435 432.8 96.2047C429.568 93.8233 426.91 91.0166 424.827 87.7847C422.743 84.5103 421.701 80.513 421.701 75.7927C421.701 70.7322 422.913 66.4372 425.337 62.9076C427.761 59.3781 431.014 56.6777 435.096 54.8066C439.221 52.9355 443.813 52 448.873 52C452.7 52 456.464 52.2764 460.163 52.8292C463.863 53.3821 468.179 54.4664 473.111 56.0824L468.902 66.4159C465.202 65.3103 461.8 64.5448 458.696 64.1196C455.592 63.6518 452.722 63.4179 450.085 63.4179C445.875 63.4179 442.58 64.5236 440.199 66.7349C437.817 68.9462 436.627 71.6465 436.627 74.8359C436.627 77.8977 437.669 80.5555 439.752 82.8093C441.836 85.0206 444.515 87.0618 447.789 88.9329C451.106 90.804 454.614 92.7389 458.313 94.7375C462.013 96.6937 465.5 98.905 468.774 101.371C472.091 103.838 474.791 106.793 476.875 110.238C478.958 113.682 480 117.85 480 122.74C480 127.758 478.703 132.159 476.109 135.944C473.558 139.729 469.901 142.684 465.138 144.811C460.418 146.937 454.827 148 448.363 148Z" fill="#F39F03"/>
<path fill-rule="evenodd" clip-rule="evenodd" d="M378.334 53.6585L322.842 146.405H305.365L334.323 99.0113L306.832 53.6585H324.373L341.339 85.4246L342.36 89.0605L343.572 85.4246L360.474 53.6585H378.334Z" fill="#00743F"/>
<path d="M379.801 146.405L354.479 104.688C353.416 106.092 352.353 107.942 351.289 110.238C350.226 112.492 349.546 114.894 349.248 117.446C348.951 119.997 349.44 122.421 350.715 124.718L362.771 146.405H379.801Z" fill="#F39F03"/>
</g>
<defs>
<clipPath id="clip0_40_139">
<rect width="480" height="200" fill="white"/>
</clipPath>
</defs>
</svg>
